<?xml version="1.0" standalone="yes"?>
<svg xmlns="http://www.w3.org/2000/svg" width="800" height="600">
<path style="fill:#f2feff; stroke:none;" d="M0 0L0 600L413 600L517 600L518 600L550 600L573 600L578 600L584 600L604 600L606 600L620 600L636 600L640 600L647 600L651 600L655 600L661 600L669 600L673 600L689 600L694 600L702 600L706 600L709 600L717 600L722 600L730 600L748 600L750 600L752 600L755 600L765 600L783 600L791 600L796.944 600L800 600L800 578L800 543L800 541L800 485L800 483L800 478L800 437L800 404L800 364L800 342L800 291L800 269L800 265L800 242L800 208L800 206L800 199L800 197L800 166L800 156L800 155L800 142L800 126L800 123L800 112L800 107L800 66L800 65L800 47L800 46L800 5L800 0L795 0L793 0L785 0L783 0L777 0L771 0L770 0L762 0L756 0L754 0L753 0L748 0L745 0L741 0L740 0L737 0L733 0L725 0L723 0L721 0L720 0L716 0L708 0L706 0L703 0L695 0L690 0L688 0L683 0L675 0L671 0L669 0L619 0L616 0L612 0L604 0L593 0L592 0L591 0L588 0L582 0L565 0L564 0L563 0L551 0L546 0L538 0L528 0L521 0L508 0L507 0L477 0L454 0L452 0L432 0L422 0L421 0L391 0L380 0L377 0L373 0L360 0L359 0L309 0L298 0L291 0L272 0L263 0L258 0L0 0z"/>
<path style="fill:#b6c1c5; stroke:none;" d="M579 160L580 161L579 160z"/>
<path style="fill:#7f8a91; stroke:none;" d="M580 160L581 161L580 160z"/>
<path style="fill:#1c2633; stroke:none;" d="M577 164L578.5 164.25L580.056 164.639L581 164.861L582 165.139L582.944 165.361L584.5 165.75L586 166L587.944 164L588.75 163L589.222 162.5L590 161L588.5 160.917L587.944 160.778L586.944 160.611L586 160.389L584 160.111L583 160.111L581 160.417L579.111 161.111L578.333 161.583L577.361 162.611L577 164z"/>
<path style="fill:#5f6a73; stroke:none;" d="M586.667 160.333L586.667 160.667L587.333 160.667L587 160.333L586.667 160.333z"/>
<path style="fill:#8c979d; stroke:none;" d="M588 160L589 161L588 160z"/>
<path style="fill:#c4cfd3; stroke:none;" d="M589 160L590 161L589 160z"/>
<path style="fill:#8b969d; stroke:none;" d="M577 161L578 162L577 161z"/>
<path style="fill:#abb6bb; stroke:none;" d="M590 161L591 162L590 161z"/>
<path style="fill:#535d67; stroke:none;" d="M576.333 162.667L576.333 163L576.667 163.333L576.667 163L576.333 162.667z"/>
<path style="fill:#626c75; stroke:none;" d="M589 162L590 163L589 162z"/>
<path style="fill:#8c989e; stroke:none;" d="M588 163L589 164L588 163z"/>
<path style="fill:#9ba6ac; stroke:none;" d="M219 164L220 165L219 164z"/>
<path style="fill:#46505b; stroke:none;" d="M220.667 164.333L220.667 164.667L221.333 164.667L221 164.333L220.667 164.333z"/>
<path style="fill:#1c2633; stroke:none;" d="M212 197L210.5 197.5L209.944 197.833L208.056 198.778L207.5 199L206 200L206 203L207 204L229 204L233 204L235 204L237 204L238 203.972L238.944 203.944L239.944 203.75L240.5 203.722L242 203L242 200L240.5 199L239.944 198.778L238.056 197.833L237.5 197.5L236 197L236.528 195.5L236.917 194.944L237.472 193.944L238.139 193L239.389 191L239.889 190L240.611 188L240.861 187L241.361 185L241.611 184L241.833 182L241.611 180L241.361 179L240.861 177L240.611 176L239.889 174L239.389 173L238.111 171.083L236.611 169.389L234.917 167.889L233 166.611L232 166.111L230 165.389L229 165.139L227 164.639L226 164.389L224 164.167L222 164.389L221 164.639L219 165.139L218 165.389L216 166.111L215 166.611L213.083 167.889L211.389 169.389L209.889 171.083L208.611 173L208.111 174L207.722 175L207.139 177L206.639 179L206.389 180L206.167 182L206.389 184L206.639 185L207.139 187L207.389 188L208.111 190L208.611 191L209.861 193L210.528 193.944L211.083 194.944L211.472 195.5L212 197z"/>
<path style="fill:#68737c; stroke:none;" d="M226.667 164.333L226.667 164.667L227.333 164.667L227 164.333L226.667 164.333z"/>
<path style="fill:#9ba6ac; stroke:none;" d="M228 164L229 165L228 164z"/>
<path style="fill:#909ba1; stroke:none;" d="M577 164L577.722 164.722L578.25 164.75L580 165L579.278 164.278L578.75 164.25L577 164z"/>
<path style="fill:#9ba6ac; stroke:none;" d="M587 164L588 165L587 164z"/>
<path style="fill:#6d7780; stroke:none;" d="M594 164L595 165L594 164z"/>
<path style="fill:#1c2633; stroke:none;" d="M536 203L537.5 204.25L538.056 204.667L540 206.194L542 207.694L543 208.278L544 208.667L546 208.944L547 208.917L548.972 208.5L550.75 207.5L551.5 206.806L552.472 205.472L553 204L575 204L574.75 205.5L574.278 207.056L573.917 208L572.917 210L571.583 212L569.917 214L568.972 215L567 217L565.028 219L564.083 220L562.389 222L561.639 223L560.861 224L559.444 226L558.861 227L558.278 228L557.833 229L557.389 230L556.694 231.944L556.25 233.5L556 235L557.5 235.722L558.056 235.75L559.056 235.944L560 235.972L561 236L563 236L564 236L566 236L570 236L582 236L587 236L595 236L596 235L596.083 233.5L596.222 232.944L596.417 231.944L596.694 231L597 230L597.667 228L598.333 226L599.333 223L600 221L600.611 219L600.861 218L601.139 217L601.361 216L601.639 215L601.861 214L602.139 213L602.611 211L602.778 210L602.917 209L603.028 207L603.083 206L603.389 204L603.611 203L603.917 201L603.972 199L603.917 198L603.611 196L603.194 194L602.806 192L602.583 191L602.306 190L601.611 188L601.167 187L600.75 186L600.222 185L599.75 184L598.611 182L597.417 180L596.528 178L596.333 177L596.417 175L596.639 174L597.139 172L597.361 171L597.611 170L597.889 168L597.75 166.056L597.722 165.5L597 164L595.5 164.278L594.944 164.5L593 165.5L592 166.25L590 168L589 168.861L587 170.056L586 170.25L585 170.194L583 169.694L582 169.417L580 169.056L579 168.944L577 168.611L576 168.389L574 168.167L572 168.5L571 168.917L570 169.417L568.083 170.694L566.389 172.222L565.611 173.083L563.917 175L562 177L561 177.972L560 178.917L558 180.528L556 181.806L555 182.389L554 183.028L553 183.667L552 184.333L550 185.667L549 186.333L548 186.972L547 187.611L546 188.194L545 188.806L544 189.389L542 190.694L540.111 192.222L539.306 193.083L538.111 195L537.389 197L537.139 198L536.639 199.944L536.25 201.5L536 203z"/>
<path style="fill:#bac5c9; stroke:none;" d="M597 164L598 165L597 164z"/>
<path style="fill:#a7b3b8; stroke:none;" d="M216 165L217 166L216 165z"/>
<path style="fill:#4d5761; stroke:none;" d="M217 165L218 166L217 165M230 165L231 166L230 165z"/>
<path style="fill:#a7b3b8; stroke:none;" d="M231 165L232 166L231 165z"/>
<path style="fill:#b6c1c5; stroke:none;" d="M582 165L583 166L582 165z"/>
<path style="fill:#768189; stroke:none;" d="M583 165L584 166L583 165z"/>
<path style="fill:#a2aeb3; stroke:none;" d="M586 165L587 166L586 165z"/>
<path style="fill:#a8b3b9; stroke:none;" d="M592 165L593 166L592 165z"/>
<path style="fill:#b9c4c9; stroke:none;" d="M214 166L215 167L214 166M233 166L234 167L233 166z"/>
<path style="fill:#919ca2; stroke:none;" d="M591 166L592 167L591 166z"/>
<path style="fill:#727c85; stroke:none;" d="M213 167L214 168L213 167M234 167L235 168L234 167z"/>
<path style="fill:#929da4; stroke:none;" d="M590 167L591 168L590 167z"/>
<path style="fill:#48535d; stroke:none;" d="M212 168L213 169L212 168M235 168L236 169L235 168z"/>
<path style="fill:#b5c0c5; stroke:none;" d="M370 168L371 169L370 168z"/>
<path style="fill:#1c2633; stroke:none;" d="M371 168L370 169L370 175L370 177L370 178L370 180L370.111 182L370.722 184L372.111 186L373.028 187L375 189L377 191L379 192.972L381 194.667L382 195.278L383 195.667L384 195.889L386 196L387 196L390 196L404 196L409 196L411 196L412 196L414 196L415 195.972L416 195.889L417 195.667L419 194.667L421 192.972L422 192L424 190L426 188L426.972 187L428.667 185L429.278 184L429.667 183L429.972 181L430 180L430 178L430 177L430 175L430 169L429 168L419 168L418.028 169.5L417.444 171.056L417.083 172.944L417 175L416 176L408 176L407 175L406.917 172.944L406.556 171.056L405.972 169.5L405 168L395 168L394.028 169.5L393.444 171.056L393.083 172.944L393 175L392 176L384 176L383 175L382.917 172.944L382.556 171.056L381.972 169.5L381 168L371 168z"/>
<path style="fill:#68737c; stroke:none;" d="M381 168L382 169L381 168M394 168L395 169L394 168M405 168L406 169L405 168M418 168L419 169L418 168z"/>
<path style="fill:#b5c0c5; stroke:none;" d="M429 168L430 169L429 168z"/>
<path style="fill:#7e8991; stroke:none;" d="M571 168L572 169L571 168z"/>
<path style="fill:#4b5560; stroke:none;" d="M576 168L576.722 168.722L577.25 168.75L579 169L578.278 168.278L577.75 168.25L576 168z"/>
<path style="fill:#c0cbcf; stroke:none;" d="M579.667 168.333L579.667 168.667L580.333 168.667L580.333 168.333L579.667 168.333z"/>
<path style="fill:#abb6bb; stroke:none;" d="M589 168L590 169L589 168z"/>
<path style="fill:#a7b3b8; stroke:none;" d="M382 169L383 170L382 169z"/>
<path style="fill:#a8b3b9; stroke:none;" d="M393 169L394 170L393 169z"/>
<path style="fill:#a7b3b8; stroke:none;" d="M406 169L407 170L406 169z"/>
<path style="fill:#a8b3b9; stroke:none;" d="M417 169L418 170L417 169z"/>
<path style="fill:#808b92; stroke:none;" d="M569 169L570 170L569 169z"/>
<path style="fill:#67717a; stroke:none;" d="M582 169L583 170L582 169z"/>
<path style="fill:#aab5ba; stroke:none;" d="M583 169L584 170L583 169z"/>
<path style="fill:#1c2633; stroke:none;" d="M602 169L601.75 170.5L601.389 172.056L601.083 174L601.028 175L601.083 177L601.25 178L601.5 179L602.417 181L603.583 183L604.111 184L604.583 185L605.389 187L606.167 189L606.556 190L606.833 191L607.139 192L607.611 194L607.917 196L607.972 197L608 199L608 202L608 204L607.972 205L607.917 206L607.611 208L607.389 209L607.194 210L606.806 212L606.611 213L606.361 214L606.139 215L605.611 217L605.306 218L605 219L604.667 220L604 222L602.667 226L602 228L601.667 229L601.333 230L600.694 231.944L600.417 232.944L600.25 233.5L600 235L601.5 235.722L602.056 235.75L603.056 235.944L603.944 235.972L604.944 236L607 236L607.972 234.5L608.167 233.944L608.639 232.944L608.972 232L609.333 231L610 229L610.333 228L611 226L611.667 224L612.306 222L612.611 221L613.139 219L613.361 218L613.639 217L613.861 216L614.361 214L614.611 213L614.917 211L615.083 209L615.222 208L615.611 206L615.917 204L616 202L616 201L615.972 199L615.917 198L615.611 196L615.389 195L615.222 194L614.944 192L614.778 191L614.611 190L614.139 188L613.833 187L613.556 186L613.167 185L612.389 183L611.583 181L610.583 179L609.972 178L608.667 176L608 175L606.583 173L604.972 171.111L604.028 170.306L603.5 169.778L602 169z"/>
<path style="fill:#869198; stroke:none;" d="M603 169L604 170L603 169z"/>
<path style="fill:#4a555f; stroke:none;" d="M210 170L211 171L210 170M237 170L238 171L237 170z"/>
<path style="fill:#6d7780; stroke:none;" d="M382 170L383 171L382 170M393 170L394 171L393 170M406 170L407 171L406 170M417 170L418 171L417 170z"/>
<path style="fill:#4a555f; stroke:none;" d="M568 170L569 171L568 170z"/>
<path style="fill:#808b92; stroke:none;" d="M585 170L586 171L585 170z"/>
<path style="fill:#626c75; stroke:none;" d="M597 170L598 171L597 170z"/>
<path style="fill:#7c878e; stroke:none;" d="M601.333 170.667L601.333 171.333L601.667 171.333L601.667 171L601.333 170.667z"/>
<path style="fill:#8d989f; stroke:none;" d="M604 170L605 171L604 170z"/>
<path style="fill:#707b83; stroke:none;" d="M209 171L210 172L209 171M238 171L239 172L238 171z"/>
<path style="fill:#8d989f; stroke:none;" d="M597 171L598 172L597 171z"/>
<path style="fill:#a6b1b6; stroke:none;" d="M605 171L606 172L605 171z"/>
<path style="fill:#b9c4c9; stroke:none;" d="M208 172L209 173L208 172M239 172L240 173L239 172z"/>
<path style="fill:#bdc9cd; stroke:none;" d="M597 172L598 173L597 172z"/>
<path style="fill:#c0ccd0; stroke:none;" d="M606 172L607 173L606 172z"/>
<path style="fill:#a1adb2; stroke:none;" d="M383 173L384 174L383 173M392 173L393 174L392 173M407 173L408 174L407 173M416 173L417 174L416 173z"/>
<path style="fill:#535e68; stroke:none;" d="M565 173L566 174L565 173z"/>
<path style="fill:#a7b3b8; stroke:none;" d="M207 174L208 175L207 174M240 174L241 175L240 174z"/>
<path style="fill:#667179; stroke:none;" d="M383 174L384 175L383 174z"/>
<path style="fill:#67717a; stroke:none;" d="M392 174L393 175L392 174z"/>
<path style="fill:#667179; stroke:none;" d="M407 174L408 175L407 174z"/>
<path style="fill:#67717a; stroke:none;" d="M416 174L417 175L416 174z"/>
<path style="fill:#6d7780; stroke:none;" d="M564 174L565 175L564 174z"/>
<path style="fill:#5b666f; stroke:none;" d="M596 174L597 175L596 174z"/>
<path style="fill:#a6b2b7; stroke:none;" d="M600 174L601 175L600 174z"/>
<path style="fill:#535e68; stroke:none;" d="M607 174L608 175L607 174z"/>
<path style="fill:#4e5862; stroke:none;" d="M207 175L208 176L207 175z"/>
<path style="fill:#4d5761; stroke:none;" d="M240 175L241 176L240 175z"/>
<path style="fill:#a6b2b7; stroke:none;" d="M384 175L385 176L384 175z"/>
<path style="fill:#a7b3b8; stroke:none;" d="M391 175L392 176L391 175z"/>
<path style="fill:#a6b2b7; stroke:none;" d="M408 175L409 176L408 175M415 175L416 176L415 175z"/>
<path style="fill:#8d989f; stroke:none;" d="M563 175L564 176L563 175z"/>
<path style="fill:#9ca7ad; stroke:none;" d="M596 175L597 176L596 175z"/>
<path style="fill:#6a757d; stroke:none;" d="M600 175L601 176L600 175z"/>
<path style="fill:#909ba1; stroke:none;" d="M608 175L609 176L608 175z"/>
<path style="fill:#afbabf; stroke:none;" d="M562 176L563 177L562 176z"/>
<path style="fill:#37414d; stroke:none;" d="M600.333 176.667L600.333 177L600.667 177.333L600.667 177L600.333 176.667z"/>
<path style="fill:#9aa5ab; stroke:none;" d="M206 177L207 178L206 177M241 177L242 178L241 177z"/>
<path style="fill:#b7c3c7; stroke:none;" d="M561 177L562 178L561 177z"/>
<path style="fill:#535d67; stroke:none;" d="M609 177L610 178L609 177z"/>
<path style="fill:#444f59; stroke:none;" d="M206.333 178.667L206.333 179.333L206.667 179.333L206.667 178.667L206.333 178.667z"/>
<path style="fill:#45505a; stroke:none;" d="M241.333 178.667L241.333 179L241.667 179.333L241.667 179L241.333 178.667z"/>
<path style="fill:#bbc6ca; stroke:none;" d="M560 178L561 179L560 178z"/>
<path style="fill:#aab5ba; stroke:none;" d="M600 178L601 179L600 178z"/>
<path style="fill:#acb7bc; stroke:none;" d="M610 178L611 179L610 178z"/>
<path style="fill:#97a3a9; stroke:none;" d="M559 179L560 180L559 179z"/>
<path style="fill:#667179; stroke:none;" d="M601 179L602 180L601 179z"/>
<path style="fill:#545f69; stroke:none;" d="M558 180L559 181L558 180z"/>
<path style="fill:#6e7981; stroke:none;" d="M597 180L598 181L597 180z"/>
<path style="fill:#9ca7ad; stroke:none;" d="M611 180L612 181L611 180z"/>
<path style="fill:#8c989e; stroke:none;" d="M556 181L557 182L556 181z"/>
<path style="fill:#aeb9be; stroke:none;" d="M598 181L599 182L598 181z"/>
<path style="fill:#a2aeb3; stroke:none;" d="M602 181L603 182L602 181z"/>
<path style="fill:#c4cfd3; stroke:none;" d="M554 182L555 183L554 182z"/>
<path style="fill:#4b5560; stroke:none;" d="M603 182L604 183L603 182z"/>
<path style="fill:#a7b3b8; stroke:none;" d="M612 182L613 183L612 182z"/>
<path style="fill:#78838b; stroke:none;" d="M553 183L554 184L553 183z"/>
<path style="fill:#7b868d; stroke:none;" d="M599 183L600 184L599 183z"/>
<path style="fill:#c2ced1; stroke:none;" d="M603 183L604 184L603 183z"/>
<path style="fill:#4d5761; stroke:none;" d="M612 183L613 184L612 183z"/>
<path style="fill:#69747d; stroke:none;" d="M206.333 184.667L206.333 185.333L206.667 185.333L206.667 184.667L206.333 184.667M241.333 184.667L241.333 185.333L241.667 185.333L241.667 185L241.333 184.667z"/>
<path style="fill:#a9b4b9; stroke:none;" d="M370 184L371 185L370 184M429 184L430 185L429 184z"/>
<path style="fill:#b1bdc1; stroke:none;" d="M551 184L552 185L551 184z"/>
<path style="fill:#59646d; stroke:none;" d="M604 184L605 185L604 184z"/>
<path style="fill:#879299; stroke:none;" d="M371 185L372 186L371 185M428 185L429 186L428 185z"/>
<path style="fill:#626d76; stroke:none;" d="M550 185L551 186L550 185z"/>
<path style="fill:#6f7a82; stroke:none;" d="M600 185L601 186L600 185z"/>
<path style="fill:#bdc9cd; stroke:none;" d="M604 185L605 186L604 185z"/>
<path style="fill:#808b92; stroke:none;" d="M613 185L614 186L613 185z"/>
<path style="fill:#9ba6ac; stroke:none;" d="M206 186L207 187L206 186M241 186L242 187L241 186z"/>
<path style="fill:#879299; stroke:none;" d="M372 186L373 187L372 186M427 186L428 187L427 186z"/>
<path style="fill:#9ca8ad; stroke:none;" d="M548 186L549 187L548 186z"/>
<path style="fill:#879299; stroke:none;" d="M373 187L374 188L373 187M426 187L427 188L426 187z"/>
<path style="fill:#4e5963; stroke:none;" d="M547 187L548 188L547 187z"/>
<path style="fill:#8a959c; stroke:none;" d="M601 187L602 188L601 187z"/>
<path style="fill:#97a3a9; stroke:none;" d="M605 187L606 188L605 187z"/>
<path style="fill:#4f5a64; stroke:none;" d="M207 188L208 189L207 188M240 188L241 189L240 188z"/>
<path style="fill:#879299; stroke:none;" d="M374 188L375 189L374 188M425 188L426 189L425 188M545 188L546 189L545 188z"/>
<path style="fill:#8b969d; stroke:none;" d="M614 188L615 189L614 188z"/>
<path style="fill:#a8b3b9; stroke:none;" d="M207 189L208 190L207 189M240 189L241 190L240 189z"/>
<path style="fill:#879299; stroke:none;" d="M375 189L376 190L375 189M424 189L425 190L424 189z"/>
<path style="fill:#c0cbcf; stroke:none;" d="M543 189L544 190L543 189M602 189L603 190L602 189z"/>
<path style="fill:#5b666f; stroke:none;" d="M606 189L607 190L606 189z"/>
<path style="fill:#535e68; stroke:none;" d="M614 189L615 190L614 189z"/>
<path style="fill:#879299; stroke:none;" d="M376 190L377 191L376 190M423 190L424 191L423 190z"/>
<path style="fill:#727d85; stroke:none;" d="M542 190L543 191L542 190z"/>
<path style="fill:#7a858d; stroke:none;" d="M602 190L603 191L602 190z"/>
<path style="fill:#9da8ae; stroke:none;" d="M606 190L607 191L606 190z"/>
<path style="fill:#bac5c9; stroke:none;" d="M208 191L209 192L208 191M239 191L240 192L239 191z"/>
<path style="fill:#879299; stroke:none;" d="M377 191L378 192L377 191M422 191L423 192L422 191z"/>
<path style="fill:#c5d0d4; stroke:none;" d="M540 191L541 192L540 191z"/>
<path style="fill:#747f87; stroke:none;" d="M209 192L210 193L209 192M238 192L239 193L238 192z"/>
<path style="fill:#879299; stroke:none;" d="M378 192L379 193L378 192M421 192L422 193L421 192z"/>
<path style="fill:#b3bec3; stroke:none;" d="M539 192L540 193L539 192z"/>
<path style="fill:#7f8a91; stroke:none;" d="M615.333 192.667L615.333 193L615.667 193.333L615.667 193L615.333 192.667z"/>
<path style="fill:#4c5661; stroke:none;" d="M210 193L211 194L210 193M237 193L238 194L237 193z"/>
<path style="fill:#879299; stroke:none;" d="M379 193L380 194L379 193M420 193L421 194L420 193z"/>
<path style="fill:#aab5ba; stroke:none;" d="M603 193L604 194L603 193z"/>
<path style="fill:#909ba1; stroke:none;" d="M607.333 193.667L607.333 194.333L607.667 194.333L607.667 194L607.333 193.667z"/>
<path style="fill:#879299; stroke:none;" d="M380 194L381 195L380 194z"/>
<path style="fill:#88939a; stroke:none;" d="M419 194L420 195L419 194z"/>
<path style="fill:#606b74; stroke:none;" d="M603.333 194.667L603.333 195L603.667 195.333L603.667 195L603.333 194.667z"/>
<path style="fill:#47515c; stroke:none;" d="M615.333 194.667L615.333 195L615.667 195.333L615.667 195L615.333 194.667z"/>
<path style="fill:#abb6bb; stroke:none;" d="M381 195L382 196L381 195M418 195L419 196L418 195z"/>
<path style="fill:#9faab0; stroke:none;" d="M537 195L538 196L537 195z"/>
<path style="fill:#cbd7da; stroke:none;" d="M607.333 195.667L607.333 196L607.667 196.333L607.667 196L607.333 195.667z"/>
<path style="fill:#56606a; stroke:none;" d="M537 196L538 197L537 196z"/>
<path style="fill:#89949b; stroke:none;" d="M210 197L211 198L210 197M237 197L238 198L237 197M208 198L209 199L208 198M239 198L240 199L239 198z"/>
<path style="fill:#bec9cd; stroke:none;" d="M536 198L537 199L536 198z"/>
<path style="fill:#b1bcc1; stroke:none;" d="M206 199L207 200L206 199z"/>
<path style="fill:#b2bec2; stroke:none;" d="M241 199L242 200L241 199z"/>
<path style="fill:#88939a; stroke:none;" d="M536 199L537 200L536 199z"/>
<path style="fill:#b5c0c5; stroke:none;" d="M382 200L383 201L382 200z"/>
<path style="fill:#1c2633; stroke:none;" d="M383 200L382 201L382 235L383 236L384.5 236L417 236L418 235L418 201L417 200L383 200z"/>
<path style="fill:#b5c0c5; stroke:none;" d="M417 200L418 201L417 200z"/>
<path style="fill:#525c66; stroke:none;" d="M536 200L537 201L536 200z"/>
<path style="fill:#b4bfc4; stroke:none;" d="M206 203L207 204L206 203M241 203L242 204L241 203z"/>
<path style="fill:#b6c1c5; stroke:none;" d="M536 203L537 204L536 203z"/>
<path style="fill:#3e4853; stroke:none;" d="M603 203L603 206L603.694 205.25L603.694 204.806L603.694 203.75L603 203z"/>
<path style="fill:#d1dde0; stroke:none;" d="M607 203L607 206L607.694 205.25L607.694 204.806L607.694 203.75L607 203z"/>
<path style="fill:#c7d3d6; stroke:none;" d="M537 204L538 205L537 204z"/>
<path style="fill:#56606a; stroke:none;" d="M539 205L540 206L539 205z"/>
<path style="fill:#848f96; stroke:none;" d="M552 205L553 206L552 205z"/>
<path style="fill:#828d95; stroke:none;" d="M540 206L541 207L540 206z"/>
<path style="fill:#9faab0; stroke:none;" d="M574 206L575 207L574 206z"/>
<path style="fill:#859097; stroke:none;" d="M603 206L603 209L603.694 208.25L603.694 207.806L603.694 206.75L603 206z"/>
<path style="fill:#8f9aa1; stroke:none;" d="M607 206L607 209L607.694 208.25L607.694 207.806L607.694 206.75L607 206z"/>
<path style="fill:#6c767f; stroke:none;" d="M615 206L615 209L615.694 208.25L615.694 207.806L615.694 206.75L615 206z"/>
<path style="fill:#b0bbc0; stroke:none;" d="M541 207L542 208L541 207z"/>
<path style="fill:#a6b2b7; stroke:none;" d="M551 207L552 208L551 207z"/>
<path style="fill:#aeb9be; stroke:none;" d="M214 208L215 209L214 208z"/>
<path style="fill:#1c2633; stroke:none;" d="M215 208L214 209L214 211.056L213.972 212.056L213.917 213L213.611 215L213.194 217L212.806 219L212.611 220L212.361 221L212.139 222L211.861 223L211.611 224L211 226L210.333 228L209.972 229L209.611 230L209.194 231L208.472 232.944L208.278 233.5L208 235L209.5 235.722L210.056 235.75L211.056 235.944L212 235.972L213 236L214 236L217 236L227 236L231 236L233 236L235 236L236 235.972L236.944 235.944L237.944 235.75L238.5 235.722L240 235L239.722 233.5L239.528 232.944L238.806 231L238.389 230L238.028 229L237.667 228L237 226L236.389 224L236.139 223L235.861 222L235.639 221L235.361 220L235.139 219L234.861 218L234.639 217L234.389 216L234.083 214L234.028 213L234 211.056L234 209L233 208L215 208z"/>
<path style="fill:#b7c3c7; stroke:none;" d="M233 208L234 209L233 208z"/>
<path style="fill:#5a656e; stroke:none;" d="M549 208L550 209L549 208z"/>
<path style="fill:#b4bfc4; stroke:none;" d="M573 208L574 209L573 208z"/>
<path style="fill:#859097; stroke:none;" d="M544 209L545 210L544 209z"/>
<path style="fill:#3d4752; stroke:none;" d="M545.667 209.333L545.667 209.667L546.333 209.667L546 209.333L545.667 209.333z"/>
<path style="fill:#68737c; stroke:none;" d="M547 209L548 210L547 209z"/>
<path style="fill:#c6d1d5; stroke:none;" d="M548 209L549 210L548 209z"/>
<path style="fill:#4a555f; stroke:none;" d="M573 209L574 210L573 209z"/>
<path style="fill:#bdc9cd; stroke:none;" d="M615.333 209.667L615.333 210L615.667 210.333L615.667 210L615.333 209.667z"/>
<path style="fill:#c2ced1; stroke:none;" d="M213 210L213 213L213.694 212.25L213.694 211.194L213.694 210.75L213 210z"/>
<path style="fill:#a0abb1; stroke:none;" d="M572 210L573 211L572 210z"/>
<path style="fill:#bbc7cb; stroke:none;" d="M234 211L234 214L234.694 213.25L234.694 212.806L234.694 211.75L234 211z"/>
<path style="fill:#4c5661; stroke:none;" d="M602 211L603 212L602 211z"/>
<path style="fill:#57616b; stroke:none;" d="M571 212L572 213L571 212z"/>
<path style="fill:#7d8890; stroke:none;" d="M602 212L603 213L602 212z"/>
<path style="fill:#a8b3b9; stroke:none;" d="M606 212L607 213L606 212z"/>
<path style="fill:#78838b; stroke:none;" d="M213 213L213 216L213.694 215.25L213.694 214.194L213.694 213.75L213 213z"/>
<path style="fill:#879299; stroke:none;" d="M570 213L571 214L570 213z"/>
<path style="fill:#b3bec3; stroke:none;" d="M602 213L603 214L602 213z"/>
<path style="fill:#768189; stroke:none;" d="M606 213L607 214L606 213z"/>
<path style="fill:#57616b; stroke:none;" d="M614 213L615 214L614 213z"/>
<path style="fill:#67717a; stroke:none;" d="M234 214L234 217L234.694 216.25L234.694 215.194L234.694 214.75L234 214z"/>
<path style="fill:#a6b2b7; stroke:none;" d="M569 214L570 215L569 214z"/>
<path style="fill:#869198; stroke:none;" d="M614 214L615 215L614 214z"/>
<path style="fill:#bbc6ca; stroke:none;" d="M568 215L569 216L568 215z"/>
<path style="fill:#57616b; stroke:none;" d="M601 215L602 216L601 215z"/>
<path style="fill:#b3bec3; stroke:none;" d="M614 215L615 216L614 215z"/>
<path style="fill:#c1cdd1; stroke:none;" d="M567 216L568 217L567 216z"/>
<path style="fill:#96a1a7; stroke:none;" d="M601 216L602 217L601 216z"/>
<path style="fill:#a1acb1; stroke:none;" d="M605 216L606 217L605 216z"/>
<path style="fill:#c1cdd1; stroke:none;" d="M566 217L567 218L566 217z"/>
<path style="fill:#646f78; stroke:none;" d="M605 217L606 218L605 217z"/>
<path style="fill:#4c5661; stroke:none;" d="M613 217L614 218L613 217z"/>
<path style="fill:#b6c2c6; stroke:none;" d="M212 218L213 219L212 218z"/>
<path style="fill:#c6d2d5; stroke:none;" d="M235 218L236 219L235 218z"/>
<path style="fill:#c1cdd1; stroke:none;" d="M565 218L566 219L565 218z"/>
<path style="fill:#828d95; stroke:none;" d="M613 218L614 219L613 218z"/>
<path style="fill:#89949b; stroke:none;" d="M212 219L213 220L212 219z"/>
<path style="fill:#9ba6ac; stroke:none;" d="M235 219L236 220L235 219z"/>
<path style="fill:#c2ced1; stroke:none;" d="M564 219L565 220L564 219z"/>
<path style="fill:#879299; stroke:none;" d="M600 219L601 220L600 219z"/>
<path style="fill:#b9c4c9; stroke:none;" d="M604 219L605 220L604 219z"/>
<path style="fill:#bac5c9; stroke:none;" d="M613 219L614 220L613 219z"/>
<path style="fill:#59646d; stroke:none;" d="M212 220L213 221L212 220z"/>
<path style="fill:#6b767e; stroke:none;" d="M235 220L236 221L235 220z"/>
<path style="fill:#c5d0d4; stroke:none;" d="M563 220L564 221L563 220z"/>
<path style="fill:#737e86; stroke:none;" d="M604 220L605 221L604 220z"/>
<path style="fill:#667179; stroke:none;" d="M612 221L613 222L612 221z"/>
<path style="fill:#c5d0d4; stroke:none;" d="M211 222L212 223L211 222z"/>
<path style="fill:#88939a; stroke:none;" d="M599 222L600 223L599 222z"/>
<path style="fill:#bec9cd; stroke:none;" d="M603 222L604 223L603 222z"/>
<path style="fill:#a9b4b9; stroke:none;" d="M612 222L613 223L612 222z"/>
<path style="fill:#8f9aa1; stroke:none;" d="M211 223L212 224L211 223z"/>
<path style="fill:#a3aeb4; stroke:none;" d="M236 223L237 224L236 223z"/>
<path style="fill:#47515c; stroke:none;" d="M561 223L562 224L561 223z"/>
<path style="fill:#758088; stroke:none;" d="M603 223L604 224L603 223z"/>
<path style="fill:#535d67; stroke:none;" d="M211 224L212 225L211 224z"/>
<path style="fill:#68727b; stroke:none;" d="M236 224L237 225L236 224z"/>
<path style="fill:#727c85; stroke:none;" d="M560 224L561 225L560 224z"/>
<path style="fill:#5d6871; stroke:none;" d="M611 224L612 225L611 224z"/>
<path style="fill:#aeb9be; stroke:none;" d="M559 225L560 226L559 225z"/>
<path style="fill:#89949b; stroke:none;" d="M598 225L599 226L598 225z"/>
<path style="fill:#b8c4c8; stroke:none;" d="M602 225L603 226L602 225z"/>
<path style="fill:#a6b2b7; stroke:none;" d="M611 225L612 226L611 225z"/>
<path style="fill:#afbabf; stroke:none;" d="M210 226L211 227L210 226z"/>
<path style="fill:#c4cfd3; stroke:none;" d="M237 226L238 227L237 226z"/>
<path style="fill:#6f7a82; stroke:none;" d="M602 226L603 227L602 226z"/>
<path style="fill:#6b767e; stroke:none;" d="M210 227L211 228L210 227z"/>
<path style="fill:#7f8a91; stroke:none;" d="M237 227L238 228L237 227z"/>
<path style="fill:#838e95; stroke:none;" d="M558 227L559 228L558 227z"/>
<path style="fill:#636e77; stroke:none;" d="M610 227L611 228L610 227z"/>
<path style="fill:#7a858d; stroke:none;" d="M597 228L598 229L597 228z"/>
<path style="fill:#b7c3c7; stroke:none;" d="M601 228L602 229L601 228z"/>
<path style="fill:#abb6bb; stroke:none;" d="M610 228L611 229L610 228z"/>
<path style="fill:#b5c0c5; stroke:none;" d="M209 229L210 230L209 229z"/>
<path style="fill:#8c989e; stroke:none;" d="M557 229L558 230L557 229z"/>
<path style="fill:#bbc7cb; stroke:none;" d="M597 229L598 230L597 229z"/>
<path style="fill:#707b83; stroke:none;" d="M601 229L602 230L601 229z"/>
<path style="fill:#646f78; stroke:none;" d="M209 230L210 231L209 230z"/>
<path style="fill:#78838b; stroke:none;" d="M238 230L239 231L238 230z"/>
<path style="fill:#646f78; stroke:none;" d="M609 230L610 231L609 230z"/>
<path style="fill:#c6d1d5; stroke:none;" d="M556 231L557 232L556 231z"/>
<path style="fill:#535d67; stroke:none;" d="M596 231L597 232L596 231z"/>
<path style="fill:#c4cfd3; stroke:none;" d="M600 231L601 232L600 231z"/>
<path style="fill:#acb8bd; stroke:none;" d="M609 231L610 232L609 231z"/>
<path style="fill:#98a3a9; stroke:none;" d="M208 232L209 233L208 232z"/>
<path style="fill:#aab5ba; stroke:none;" d="M239 232L240 233L239 232z"/>
<path style="fill:#8c979d; stroke:none;" d="M556 232L557 233L556 232z"/>
<path style="fill:#88939a; stroke:none;" d="M596 232L597 233L596 232z"/>
<path style="fill:#859097; stroke:none;" d="M600 232L601 233L600 232z"/>
<path style="fill:#bdc9cd; stroke:none;" d="M596 233L597 234L596 233z"/>
<path style="fill:#667179; stroke:none;" d="M608 233L609 234L608 233z"/>
<path style="fill:#b7c3c7; stroke:none;" d="M608 234L609 235L608 234z"/>
<path style="fill:#838e95; stroke:none;" d="M208 235L209 236L208 235z"/>
<path style="fill:#919da3; stroke:none;" d="M239 235L240 236L239 235z"/>
<path style="fill:#b4bfc4; stroke:none;" d="M382 235L383 236L382 235M417 235L418 236L417 235z"/>
<path style="fill:#909ba1; stroke:none;" d="M556 235L557 236L556 235z"/>
<path style="fill:#c3cfd2; stroke:none;" d="M595 235L596 236L595 235z"/>
<path style="fill:#828d95; stroke:none;" d="M600 235L601 236L600 235z"/>
<path style="fill:#939ea5; stroke:none;" d="M607 235L608 236L607 235z"/>
<path style="fill:#acb7bc; stroke:none;" d="M205 240L206 241L205 240z"/>
<path style="fill:#1c2633; stroke:none;" d="M194 259L195 260L253 260L254 259L254 256.944L254 255.944L253.889 254L253.667 253L253.278 252L252.667 251L250.972 249L249 247L247 245L245 243.028L244 242.111L242 240.722L240 240.111L238 240L236 240L235 240L233 240L227 240L214 240L211 240L210 240L208 240.111L207 240.333L206 240.722L204 242.111L203 243.028L201 245L199 247L197.028 249L195.333 251L194.722 252L194.333 253L194.111 254L194 255.944L194 256.944L194 259z"/>
<path style="fill:#abb6bb; stroke:none;" d="M242 240L243 241L242 240z"/>
<path style="fill:#acb7bc; stroke:none;" d="M381 240L382 241L381 240z"/>
<path style="fill:#1c2633; stroke:none;" d="M370 259L371 260L429 260L430 259L430 256.944L430 255.944L429.889 254L429.667 253L429.278 252L428.667 251L426.972 249L425 247L423 245L421 243.028L420 242.111L418 240.722L417 240.333L416 240.111L414 240L413 240L410 240L397 240L391 240L389 240L388 240L386 240L384 240.111L382 240.722L380 242.111L379 243.028L377 245L375 247L373.028 249L371.333 251L370.722 252L370.333 253L370.111 254L370 255.944L370 256.944L370 259z"/>
<path style="fill:#abb6bb; stroke:none;" d="M418 240L419 241L418 240z"/>
<path style="fill:#bcc8cc; stroke:none;" d="M555 240L556 241L555 240z"/>
<path style="fill:#505b65; stroke:none;" d="M556 240L557 241L556 240z"/>
<path style="fill:#1c2633; stroke:none;" d="M545 260L607 260L608 259L608 256.944L608 255.944L607.889 254L607.667 253L607.278 252L606.667 251L604.972 249L603 247L601 245L599 243.028L598 242.111L596 240.722L594 240.111L592 240L590 240L589 240L586 240L583 240L579 240L565 240L562 240L560 240.028L558 240.25L557 240.5L555 241.5L554 242.25L552 244.028L550 246L548.028 248L547.111 249L545.722 251L545.333 252L545.111 253L545 255L545 256.944L545 260z"/>
<path style="fill:#96a1a7; stroke:none;" d="M596 240L597 241L596 240z"/>
<path style="fill:#89949b; stroke:none;" d="M204 241L205 242L204 241M243 241L244 242L243 241M380 241L381 242L380 241M419 241L420 242L419 241z"/>
<path style="fill:#a4afb5; stroke:none;" d="M554 241L555 242L554 241z"/>
<path style="fill:#6d7780; stroke:none;" d="M597 241L598 242L597 241z"/>
<path style="fill:#879299; stroke:none;" d="M203 242L204 243L203 242M244 242L245 243L244 242M379 242L380 243L379 242M420 242L421 243L420 242z"/>
<path style="fill:#a4afb5; stroke:none;" d="M553 242L554 243L553 242z"/>
<path style="fill:#6c767f; stroke:none;" d="M598 242L599 243L598 242z"/>
<path style="fill:#879299; stroke:none;" d="M202 243L203 244L202 243M245 243L246 244L245 243M378 243L379 244L378 243M421 243L422 244L421 243z"/>
<path style="fill:#a4afb5; stroke:none;" d="M552 243L553 244L552 243z"/>
<path style="fill:#6c767f; stroke:none;" d="M599 243L600 244L599 243z"/>
<path style="fill:#879299; stroke:none;" d="M201 244L202 245L201 244M246 244L247 245L246 244M377 244L378 245L377 244M422 244L423 245L422 244z"/>
<path style="fill:#a4afb5; stroke:none;" d="M551 244L552 245L551 244z"/>
<path style="fill:#6c767f; stroke:none;" d="M600 244L601 245L600 244z"/>
<path style="fill:#879299; stroke:none;" d="M200 245L201 246L200 245M247 245L248 246L247 245M376 245L377 246L376 245M423 245L424 246L423 245z"/>
<path style="fill:#a4afb5; stroke:none;" d="M550 245L551 246L550 245z"/>
<path style="fill:#6c767f; stroke:none;" d="M601 245L602 246L601 245z"/>
<path style="fill:#879299; stroke:none;" d="M199 246L200 247L199 246M248 246L249 247L248 246M375 246L376 247L375 246M424 246L425 247L424 246z"/>
<path style="fill:#a4afb5; stroke:none;" d="M549 246L550 247L549 246z"/>
<path style="fill:#6c767f; stroke:none;" d="M602 246L603 247L602 246z"/>
<path style="fill:#879299; stroke:none;" d="M198 247L199 248L198 247M249 247L250 248L249 247M374 247L375 248L374 247M425 247L426 248L425 247z"/>
<path style="fill:#a4afb5; stroke:none;" d="M548 247L549 248L548 247z"/>
<path style="fill:#6c767f; stroke:none;" d="M603 247L604 248L603 247z"/>
<path style="fill:#879299; stroke:none;" d="M197 248L198 249L197 248M250 248L251 249L250 248M373 248L374 249L373 248M426 248L427 249L426 248z"/>
<path style="fill:#a4afb5; stroke:none;" d="M547 248L548 249L547 248z"/>
<path style="fill:#6c767f; stroke:none;" d="M604 248L605 249L604 248z"/>
<path style="fill:#879299; stroke:none;" d="M196 249L197 250L196 249M251 249L252 250L251 249M372 249L373 250L372 249M427 249L428 250L427 249z"/>
<path style="fill:#a4afb5; stroke:none;" d="M546 249L547 250L546 249z"/>
<path style="fill:#6c767f; stroke:none;" d="M605 249L606 250L605 249z"/>
<path style="fill:#879299; stroke:none;" d="M195 250L196 251L195 250M252 250L253 251L252 250M371 250L372 251L371 250M428 250L429 251L428 250z"/>
<path style="fill:#a5b0b5; stroke:none;" d="M545 250L546 251L545 250z"/>
<path style="fill:#6d7780; stroke:none;" d="M606 250L607 251L606 250z"/>
<path style="fill:#aab5ba; stroke:none;" d="M194 251L195 252L194 251z"/>
<path style="fill:#a9b4b9; stroke:none;" d="M253 251L254 252L253 251z"/>
<path style="fill:#aab5ba; stroke:none;" d="M370 251L371 252L370 251z"/>
<path style="fill:#a9b4b9; stroke:none;" d="M429 251L430 252L429 251z"/>
<path style="fill:#c6d2d5; stroke:none;" d="M544 251L545 252L544 251z"/>
<path style="fill:#8d989f; stroke:none;" d="M607 251L608 252L607 251z"/>
<path style="fill:#353f4b; stroke:none;" d="M544 252L544 259L544.722 258.222L544.75 257.694L544.944 256.889L544.972 255.972L544.944 254.111L544.75 253.306L544.722 252.778L544 252z"/>
<path style="fill:#d9e5e7; stroke:none;" d="M608 253L608 259L608.722 258.222L608.75 257.694L608.944 256.889L608.944 255.111L608.75 254.306L608.722 253.778L608 253z"/>
<path style="fill:#b4bfc4; stroke:none;" d="M194 259L195 260L194 259M253 259L254 260L253 259M370 259L371 260L370 259M429 259L430 260L429 259z"/>
<path style="fill:#c6d2d5; stroke:none;" d="M544 259L545 260L544 259z"/>
<path style="fill:#9ea9af; stroke:none;" d="M607 259L608 260L607 259z"/>
<path style="fill:#c6d1d5; stroke:none;" d="M396 332L397 333L396 332z"/>
<path style="fill:#707b83; stroke:none;" d="M397 332L398 333L397 332z"/>
<path style="fill:#1c2633; stroke:none;" d="M398 357L402 357L402.444 355.5L402.667 354.944L403.389 353L403.806 352L404.611 350L405.389 348L406.194 346L406.611 345L407.306 343L407.583 342L407.75 341L407.722 339L407.5 338L406.5 336.028L405.75 335.083L404.917 334.25L403.972 333.5L403 332.944L401 332.278L400 332.167L399 332.278L397 332.944L396.028 333.5L394.25 335.083L393.5 336.028L392.5 338L392.167 340L392.25 341L392.417 342L392.694 343L393.389 345L393.806 346L394.611 348L395.389 350L396.194 352L396.611 353L397.333 354.944L397.556 355.5L398 357z"/>
<path style="fill:#747f87; stroke:none;" d="M402 332L403 333L402 332z"/>
<path style="fill:#68727b; stroke:none;" d="M395 333L396 334L395 333z"/>
<path style="fill:#717c84; stroke:none;" d="M404 333L405 334L404 333z"/>
<path style="fill:#47515c; stroke:none;" d="M394 334L395 335L394 334z"/>
<path style="fill:#545f69; stroke:none;" d="M405 334L406 335L405 334z"/>
<path style="fill:#68727b; stroke:none;" d="M393 335L394 336L393 335z"/>
<path style="fill:#778189; stroke:none;" d="M406 335L407 336L406 335z"/>
<path style="fill:#c2ced1; stroke:none;" d="M392 336L393 337L392 336z"/>
<path style="fill:#67717a; stroke:none;" d="M392 337L393 338L392 337z"/>
<path style="fill:#768189; stroke:none;" d="M407 337L408 338L407 337z"/>
<path style="fill:#7d878f; stroke:none;" d="M221 340L222 341L221 340z"/>
<path style="fill:#1c2633; stroke:none;" d="M217 353L215.5 353.444L214.944 353.667L213 354.389L211 355.278L210 355.833L209 356.389L207 357.694L206 358.417L204.028 360.083L203.083 361.028L201.417 363L200.028 365L199.417 366L198.417 368L198.028 369L197.389 371L197.139 372L196.639 374L196.389 375L196.083 377L196.056 378L196.083 379L196.389 381L196.611 382L196.944 384L197.056 385L197.389 387L197.639 388L197.861 389L198.389 391L198.694 392L199.333 394L200.028 396L200.389 397L201.25 399L201.75 400L202.611 402L203.389 404L204.194 406L204.611 407L205.361 408.944L205.833 409.944L206.028 410.5L207 412L241 412L242 410.5L242.222 409.944L242.778 408.944L243.611 407L244.389 405L244.806 404L245.611 402L246.389 400L247.194 398L247.611 397L248.333 395L248.667 394L249.333 392L250 390L250.583 388L250.917 386L251.083 384L251.389 382L251.611 381L251.917 379L251.917 377L251.611 375L251.361 374L250.861 372L250.611 371L249.972 369L249.583 368L248.583 366L247.972 365L246.583 363L244.917 361.028L243.972 360.083L243 359.222L241 357.694L239 356.417L238.056 355.917L236.5 355.278L235 355L234.917 356.5L234.528 358.056L234.167 359L233.389 361L232.611 363L232.167 364L231.75 365L231.222 366L230.778 367L230.25 368L229.389 370L229.028 371L228.333 373L228 374L227.417 376L227.056 378L226.944 379L226.778 380L226.389 382L226.083 383.944L226 386L222 386L222 383.944L222 382.944L222.028 381L222.083 380L222.389 378L222.639 377L222.861 376L223.444 374L223.833 373L224.611 371L225.389 369L225.833 368L226.25 367L226.778 366L227.222 365L227.75 364L228.611 362L228.972 361L229.667 359L230 358L230.583 356L230.806 355L231.194 353L231.389 352L231.611 351L231.889 349L231.75 347L231.5 346L230.5 344.028L229.75 343.083L227.972 341.5L227 340.944L225 340.278L224 340.167L223 340.278L222 340.5L220.028 341.5L219.083 342.25L217.5 344.028L216.5 346L216.278 347L216.167 348L216.389 349.944L216.75 351.5L217 353z"/>
<path style="fill:#78838b; stroke:none;" d="M226 340L227 341L226 340M219 341L220 342L219 341z"/>
<path style="fill:#707b83; stroke:none;" d="M228 341L229 342L228 341z"/>
<path style="fill:#56606a; stroke:none;" d="M218 342L219 343L218 342z"/>
<path style="fill:#4d5761; stroke:none;" d="M229 342L230 343L229 342z"/>
<path style="fill:#616b75; stroke:none;" d="M392 342L393 343L392 342z"/>
<path style="fill:#707b83; stroke:none;" d="M407 342L408 343L407 342z"/>
<path style="fill:#7d8890; stroke:none;" d="M217 343L218 344L217 343z"/>
<path style="fill:#717c84; stroke:none;" d="M230 343L231 344L230 343z"/>
<path style="fill:#b1bcc1; stroke:none;" d="M392 343L393 344L392 343z"/>
<path style="fill:#bfcace; stroke:none;" d="M407 343L408 344L407 343z"/>
<path style="fill:#7b868d; stroke:none;" d="M559 344L560 345L559 344z"/>
<path style="fill:#1c2633; stroke:none;" d="M558 385L556.5 384.222L555.944 383.722L554 382.194L552 380.611L550 378.917L548 377L546.028 375L544.417 373L543.722 371L543.778 369L543.722 367L543.5 366L542.5 364.028L541.75 363.083L540.917 362.25L539.972 361.5L538 360.5L537 360.278L536 360.167L534 360.5L532.028 361.5L531.083 362.25L529.5 364.028L528.944 365L528.5 366L528.278 367L528.167 368L528.5 370L528.944 371L529.5 371.972L530.25 372.917L532.028 374.5L533 375.083L534.972 376.083L535.889 376.639L537.361 378.111L538.361 380L539.25 382L539.75 383L540.611 385L541.389 387L542.25 389L542.75 390L543.611 392L544.389 394L545.25 396L545.75 397L546.611 399L547.389 401L547.833 402L548.75 404L549.611 406L550.417 408L551.5 409.889L553.083 411.278L554.028 411.667L556 411.972L558 412L560 412L565 412L566 412L577 412L582 412L588 412L592 412L594 412L595 412L597 411.889L598.917 411.278L599.75 410.667L600.5 409.889L601.583 408L602 407L602.389 406L603.25 404L604.167 402L604.611 401L605.389 399L606.25 397L606.75 396L607.611 394L608.389 392L609.25 390L609.75 389L610.611 387L611.389 385L612.25 383L612.75 382L613.639 380L614.083 379.028L614.639 378.111L616.111 376.639L618 375.611L619.972 374.5L621.75 372.917L622.5 371.972L623.056 371L623.5 370L623.833 368L623.722 367L623.5 366L623.056 365L621.75 363.083L619.972 361.5L619 360.944L618 360.5L617 360.278L616 360.167L614 360.5L612.028 361.5L611.083 362.25L610.25 363.083L609.5 364.028L608.5 366L608.278 367L608.222 369L608.278 371L607.583 373L605.972 375L604 377L602 378.917L600 380.611L598 382.194L596.056 383.722L595.5 384.222L594 385L593.417 382.944L593.222 381.944L593.083 381L593 379L593 377L593 374L593 373L592.972 371L592.917 370L592.611 368L592.389 367L592.083 365L592.056 364L592.111 363L592.722 361L594.083 359L595.75 357L596.5 356L597.5 354L597.833 352L597.722 351L597.5 350L596.5 348.028L595.75 347.083L593.972 345.5L592 344.5L591 344.278L590 344.167L588 344.5L586.028 345.5L584.25 347.083L583.5 348.028L582.5 350L582.167 352L582.5 354L583.444 355.889L584.194 356.694L584.583 357.222L586 358L585.5 359.5L585.194 360.056L584.806 361.056L584.389 362L583.611 364L582.806 366L582.389 367L581.667 369L581.333 370L580.972 371L580.611 372L579.806 374L579.389 375L578.667 377L578.333 378L578 378.944L577.667 379.944L577.444 380.5L577 382L575 382L574.556 380.5L574.333 379.944L574 378.944L573.667 378L573.333 377L572.611 375L572.194 374L571.389 372L571.028 371L570.667 370L570.333 369L569.611 367L569.194 366L568.389 364L567.611 362L567.194 361.056L566.806 360.056L566.5 359.5L566 358L567.417 357.222L567.806 356.694L568.556 355.889L569.5 354L569.833 352L569.5 350L568.5 348.028L567.75 347.083L565.972 345.5L564 344.5L562 344.167L561 344.278L559 344.944L557.083 346.25L556.25 347.083L554.944 349L554.5 350L554.167 352L554.5 354L555.5 356L556.25 357L557.917 359L559.278 361L559.861 363L559.889 364L559.611 366L559.389 367L559.083 369L559.028 370L559 372L559 373L559 377L559 379L558.917 381L558.778 381.944L558.583 382.944L558 385z"/>
<path style="fill:#7b868d; stroke:none;" d="M564 344L565 345L564 344M587 344L588 345L587 344M592 344L593 345L592 344z"/>
<path style="fill:#7a858d; stroke:none;" d="M216 345L217 346L216 345z"/>
<path style="fill:#6d7881; stroke:none;" d="M231 345L232 346L231 345z"/>
<path style="fill:#869198; stroke:none;" d="M393 345L394 346L393 345z"/>
<path style="fill:#939ea5; stroke:none;" d="M406 345L407 346L406 345z"/>
<path style="fill:#768189; stroke:none;" d="M557 345L558 346L557 345z"/>
<path style="fill:#727d85; stroke:none;" d="M566 345L567 346L566 345z"/>
<path style="fill:#768189; stroke:none;" d="M585 345L586 346L585 345z"/>
<path style="fill:#727d85; stroke:none;" d="M594 345L595 346L594 345z"/>
<path style="fill:#556069; stroke:none;" d="M556 346L557 347L556 346z"/>
<path style="fill:#545f69; stroke:none;" d="M567 346L568 347L567 346z"/>
<path style="fill:#556069; stroke:none;" d="M584 346L585 347L584 346z"/>
<path style="fill:#545f69; stroke:none;" d="M595 346L596 347L595 346z"/>
<path style="fill:#5a656e; stroke:none;" d="M394 347L395 348L394 347z"/>
<path style="fill:#68737c; stroke:none;" d="M405 347L406 348L405 347z"/>
<path style="fill:#758088; stroke:none;" d="M555 347L556 348L555 347z"/>
<path style="fill:#768189; stroke:none;" d="M568 347L569 348L568 347z"/>
<path style="fill:#758088; stroke:none;" d="M583 347L584 348L583 347z"/>
<path style="fill:#768189; stroke:none;" d="M596 347L597 348L596 347z"/>
<path style="fill:#afbabf; stroke:none;" d="M394 348L395 349L394 348z"/>
<path style="fill:#bec9cd; stroke:none;" d="M405 348L406 349L405 348z"/>
<path style="fill:#7a858d; stroke:none;" d="M554 349L555 350L554 349M569 349L570 350L569 349M582 349L583 350L582 349M597 349L598 350L597 349z"/>
<path style="fill:#a1adb2; stroke:none;" d="M216.333 350.667L216.333 351L216.667 351.333L216.667 351L216.333 350.667z"/>
<path style="fill:#848f96; stroke:none;" d="M395 350L396 351L395 350z"/>
<path style="fill:#939ea5; stroke:none;" d="M404 350L405 351L404 350z"/>
<path style="fill:#646f78; stroke:none;" d="M231 351L231 354L231.694 353.25L231.694 352.194L231.694 351.75L231 351z"/>
<path style="fill:#67717a; stroke:none;" d="M216 352L217 353L216 352z"/>
<path style="fill:#b1bcc1; stroke:none;" d="M373 352L374 353L373 352z"/>
<path style="fill:#56606a; stroke:none;" d="M374.667 352.333L374.667 352.667L375.333 352.667L375 352.333L374.667 352.333z"/>
<path style="fill:#1c2633; stroke:none;" d="M376 411L377 412L423 412L424 411L424.028 409.5L424.25 407.944L424.472 407L425.278 405L425.861 404L426.472 403L428.083 401L430 399L431 398L432 397L434 395L435.972 393L436.917 392L438.583 390L439.972 388L440.611 387L441.722 385L442.528 383L442.75 382L442.944 381L443.222 379L443.611 377L443.889 375L443.778 373L443.361 371L442.861 369L442.611 368L441.972 366L441.583 365L440.583 363L439.306 361L437.778 359.083L435.972 357.417L435 356.694L433 355.417L431 354.417L429 353.694L428 353.417L427 353.194L425 352.806L424 352.611L423 352.389L421 352.111L420 352.111L418 352.389L417 352.639L415 353.139L414 353.389L412 354.028L411 354.417L409 355.472L407.028 356.861L406.083 357.639L405.222 358.389L404.389 359.222L402.889 361.028L402.25 361.944L401.694 362.944L401.361 363.5L401 365L399 365L398.639 363.5L398.306 362.944L397.75 361.944L397.111 361.028L395.611 359.222L394.778 358.389L393.917 357.639L392 356.167L391 355.472L389 354.417L388 354.028L386 353.417L384 353.056L383 352.944L381 352.611L380 352.389L378 352.167L376 352.389L375 352.639L373 353.139L372 353.389L370 354.028L369 354.417L367 355.472L366 356.167L364.028 357.639L363.083 358.389L361.417 360.083L360.694 361.028L359.417 363L358.417 365L358.028 366L357.389 368L357.139 369L356.639 371L356.222 373L356.111 375L356.389 377L356.778 379L357.056 381L357.25 382L357.472 383L358.278 385L359.389 387L360.028 388L361.417 390L363.083 392L364.028 393L366 395L368 397L369 398L370 399L371.917 401L373.528 403L374.139 404L374.722 405L375.528 407L375.75 407.944L375.972 409.5L376 411z"/>
<path style="fill:#414b56; stroke:none;" d="M380 352L380.722 352.722L381.25 352.75L383 353L382.278 352.278L381.75 352.25L380 352z"/>
<path style="fill:#7d8890; stroke:none;" d="M383 352L384 353L383 352z"/>
<path style="fill:#adb9bd; stroke:none;" d="M384 352L385 353L384 352z"/>
<path style="fill:#59646d; stroke:none;" d="M396 352L397 353L396 352z"/>
<path style="fill:#68727b; stroke:none;" d="M403 352L404 353L403 352z"/>
<path style="fill:#adb9bd; stroke:none;" d="M415 352L416 353L415 352z"/>
<path style="fill:#57616b; stroke:none;" d="M416.667 352.333L416.667 352.667L417.333 352.667L417 352.333L416.667 352.333z"/>
<path style="fill:#56606a; stroke:none;" d="M423 352L423.722 352.722L424.25 352.75L426 353L425.278 352.278L424.75 352.25L423 352z"/>
<path style="fill:#b0bbc0; stroke:none;" d="M426 352L427 353L426 352z"/>
<path style="fill:#adb9bd; stroke:none;" d="M214 353L215 354L214 353z"/>
<path style="fill:#58626c; stroke:none;" d="M215 353L216 354L215 353z"/>
<path style="fill:#a6b1b6; stroke:none;" d="M370 353L371 354L370 353z"/>
<path style="fill:#58636d; stroke:none;" d="M371 353L372 354L371 353z"/>
<path style="fill:#5e6972; stroke:none;" d="M386 353L387 354L386 353z"/>
<path style="fill:#abb6bb; stroke:none;" d="M387 353L388 354L387 353z"/>
<path style="fill:#aeb9be; stroke:none;" d="M396 353L397 354L396 353z"/>
<path style="fill:#bcc8cc; stroke:none;" d="M403 353L404 354L403 353z"/>
<path style="fill:#abb6bb; stroke:none;" d="M412 353L413 354L412 353z"/>
<path style="fill:#5e6972; stroke:none;" d="M413 353L414 354L413 353z"/>
<path style="fill:#58626c; stroke:none;" d="M428 353L429 354L428 353z"/>
<path style="fill:#a6b1b6; stroke:none;" d="M429 353L430 354L429 353z"/>
<path style="fill:#808b92; stroke:none;" d="M212 354L213 355L212 354z"/>
<path style="fill:#b8c4c8; stroke:none;" d="M231 354L232 355L231 354z"/>
<path style="fill:#929da4; stroke:none;" d="M368 354L369 355L368 354M389 354L390 355L389 354z"/>
<path style="fill:#939ea5; stroke:none;" d="M410 354L411 355L410 354z"/>
<path style="fill:#929da4; stroke:none;" d="M431 354L432 355L431 354z"/>
<path style="fill:#778189; stroke:none;" d="M554 354L555 355L554 354z"/>
<path style="fill:#7c878e; stroke:none;" d="M569 354L570 355L569 354M582 354L583 355L582 354z"/>
<path style="fill:#778189; stroke:none;" d="M597 354L598 355L597 354z"/>
<path style="fill:#7d878f; stroke:none;" d="M210 355L211 356L210 355z"/>
<path style="fill:#758088; stroke:none;" d="M237 355L238 356L237 355z"/>
<path style="fill:#b5c0c5; stroke:none;" d="M366 355L367 356L366 355z"/>
<path style="fill:#bac5c9; stroke:none;" d="M391 355L392 356L391 355z"/>
<path style="fill:#828d95; stroke:none;" d="M397 355L398 356L397 355z"/>
<path style="fill:#919da3; stroke:none;" d="M402 355L403 356L402 355z"/>
<path style="fill:#bac5c9; stroke:none;" d="M408 355L409 356L408 355z"/>
<path style="fill:#b5c0c5; stroke:none;" d="M433 355L434 356L433 355z"/>
<path style="fill:#a1adb2; stroke:none;" d="M208 356L209 357L208 356z"/>
<path style="fill:#57616b; stroke:none;" d="M230 356L231 357L230 356z"/>
<path style="fill:#97a3a9; stroke:none;" d="M239 356L240 357L239 356z"/>
<path style="fill:#747f87; stroke:none;" d="M365 356L366 357L365 356z"/>
<path style="fill:#7c878e; stroke:none;" d="M392 356L393 357L392 356M407 356L408 357L407 356z"/>
<path style="fill:#747f87; stroke:none;" d="M434 356L435 357L434 356z"/>
<path style="fill:#778189; stroke:none;" d="M555 356L556 357L555 356z"/>
<path style="fill:#727d85; stroke:none;" d="M568 356L569 357L568 356z"/>
<path style="fill:#78838b; stroke:none;" d="M583 356L584 357L583 356z"/>
<path style="fill:#778189; stroke:none;" d="M596 356L597 357L596 356z"/>
<path style="fill:#5c6670; stroke:none;" d="M207 357L208 358L207 357z"/>
<path style="fill:#9aa5ab; stroke:none;" d="M230 357L231 358L230 357z"/>
<path style="fill:#96a1a7; stroke:none;" d="M234 357L235 358L234 357z"/>
<path style="fill:#545f69; stroke:none;" d="M240 357L241 358L240 357z"/>
<path style="fill:#48525d; stroke:none;" d="M364 357L365 358L364 357z"/>
<path style="fill:#49545e; stroke:none;" d="M393 357L394 358L393 357z"/>
<path style="fill:#a2aeb3; stroke:none;" d="M398 357L399 358L398 357z"/>
<path style="fill:#36404c; stroke:none;" d="M399.667 357.333L400 357.667L400.333 357.667L400 357.333L399.667 357.333z"/>
<path style="fill:#adb9bd; stroke:none;" d="M401 357L402 358L401 357z"/>
<path style="fill:#49545e; stroke:none;" d="M406 357L407 358L406 357z"/>
<path style="fill:#58626c; stroke:none;" d="M556 357L557 358L556 357z"/>
<path style="fill:#58636d; stroke:none;" d="M567 357L568 358L567 357M584 357L585 358L584 357z"/>
<path style="fill:#58626c; stroke:none;" d="M595 357L596 358L595 357z"/>
<path style="fill:#c6d2d5; stroke:none;" d="M205 358L206 359L205 358z"/>
<path style="fill:#56606a; stroke:none;" d="M234 358L235 359L234 358z"/>
<path style="fill:#c0ccd0; stroke:none;" d="M242 358L243 359L242 358z"/>
<path style="fill:#7c878e; stroke:none;" d="M557 358L558 359L557 358z"/>
<path style="fill:#424c57; stroke:none;" d="M566.333 358.667L566.333 359L566.667 359.333L566.667 359L566.333 358.667z"/>
<path style="fill:#434d58; stroke:none;" d="M585.333 358.667L585.333 359L585.667 359.333L585.667 359L585.333 358.667z"/>
<path style="fill:#7c878e; stroke:none;" d="M594 358L595 359L594 358z"/>
<path style="fill:#b3bec3; stroke:none;" d="M204 359L205 360L204 359z"/>
<path style="fill:#667179; stroke:none;" d="M229 359L230 360L229 359z"/>
<path style="fill:#aab5ba; stroke:none;" d="M243 359L244 360L243 359z"/>
<path style="fill:#aeb9be; stroke:none;" d="M203 360L204 361L203 360z"/>
<path style="fill:#b6c2c6; stroke:none;" d="M229 360L230 361L229 360z"/>
<path style="fill:#949fa5; stroke:none;" d="M233 360L234 361L233 360z"/>
<path style="fill:#a1adb2; stroke:none;" d="M244 360L245 361L244 360z"/>
<path style="fill:#4a555f; stroke:none;" d="M396 360L397 361L396 360z"/>
<path style="fill:#48535d; stroke:none;" d="M403 360L404 361L403 360z"/>
<path style="fill:#7b868d; stroke:none;" d="M533 360L534 361L533 360M538 360L539 361L538 360M559.333 360.667L559.333 361L559.667 361.333L559.667 361L559.333 360.667z"/>
<path style="fill:#7a858d; stroke:none;" d="M592.333 360.667L592.333 361L592.667 361.333L592.667 361L592.333 360.667z"/>
<path style="fill:#7b868d; stroke:none;" d="M613 360L614 361L613 360M618 360L619 361L618 360z"/>
<path style="fill:#b9c4c9; stroke:none;" d="M202 361L203 362L202 361z"/>
<path style="fill:#aeb9be; stroke:none;" d="M245 361L246 362L245 361z"/>
<path style="fill:#717c84; stroke:none;" d="M360 361L361 362L360 361z"/>
<path style="fill:#727d85; stroke:none;" d="M397 361L398 362L397 361z"/>
<path style="fill:#737e86; stroke:none;" d="M402 361L403 362L402 361z"/>
<path style="fill:#707b83; stroke:none;" d="M439 361L440 362L439 361z"/>
<path style="fill:#768189; stroke:none;" d="M531 361L532 362L531 361z"/>
<path style="fill:#727d85; stroke:none;" d="M540 361L541 362L540 361z"/>
<path style="fill:#79848c; stroke:none;" d="M567 361L568 362L567 361M584 361L585 362L584 361z"/>
<path style="fill:#768189; stroke:none;" d="M611 361L612 362L611 361z"/>
<path style="fill:#727d85; stroke:none;" d="M620 361L621 362L620 361z"/>
<path style="fill:#97a2a8; stroke:none;" d="M228 362L229 363L228 362z"/>
<path style="fill:#c2ced1; stroke:none;" d="M232 362L233 363L232 362z"/>
<path style="fill:#c4cfd3; stroke:none;" d="M246 362L247 363L246 362z"/>
<path style="fill:#b4bfc4; stroke:none;" d="M359 362L360 363L359 362z"/>
<path style="fill:#b6c1c5; stroke:none;" d="M398 362L399 363L398 362M401 362L402 363L401 362z"/>
<path style="fill:#b4bfc4; stroke:none;" d="M440 362L441 363L440 362z"/>
<path style="fill:#556069; stroke:none;" d="M530 362L531 363L530 362z"/>
<path style="fill:#535e68; stroke:none;" d="M541 362L542 363L541 362z"/>
<path style="fill:#626c75; stroke:none;" d="M559 362L559 365L559.694 364.25L559.694 363.194L559.694 362.75L559 362z"/>
<path style="fill:#616b75; stroke:none;" d="M592 362L592 365L592.694 364.25L592.694 363.194L592.694 362.75L592 362z"/>
<path style="fill:#556069; stroke:none;" d="M610 362L611 363L610 362z"/>
<path style="fill:#545f69; stroke:none;" d="M621 362L622 363L621 362z"/>
<path style="fill:#657079; stroke:none;" d="M232 363L233 364L232 363z"/>
<path style="fill:#758088; stroke:none;" d="M529 363L530 364L529 363z"/>
<path style="fill:#768189; stroke:none;" d="M542 363L543 364L542 363z"/>
<path style="fill:#b0bbc0; stroke:none;" d="M568 363L569 364L568 363M583 363L584 364L583 363z"/>
<path style="fill:#758088; stroke:none;" d="M609 363L610 364L609 363z"/>
<path style="fill:#768189; stroke:none;" d="M622 363L623 364L622 363z"/>
<path style="fill:#6f7a82; stroke:none;" d="M200 364L201 365L200 364z"/>
<path style="fill:#848f96; stroke:none;" d="M227 364L228 365L227 364z"/>
<path style="fill:#616b75; stroke:none;" d="M247 364L248 365L247 364z"/>
<path style="fill:#939ea5; stroke:none;" d="M358 364L359 365L358 364z"/>
<path style="fill:#4d5761; stroke:none;" d="M399.667 364.333L400 364.667L400.333 364.667L400 364.333L399.667 364.333z"/>
<path style="fill:#939ea5; stroke:none;" d="M441 364L442 365L441 364z"/>
<path style="fill:#5e6972; stroke:none;" d="M568 364L569 365L568 364M583 364L584 365L583 364z"/>
<path style="fill:#bbc7cb; stroke:none;" d="M199 365L200 366L199 365z"/>
<path style="fill:#7d8890; stroke:none;" d="M231 365L232 366L231 365z"/>
<path style="fill:#aeb9be; stroke:none;" d="M248 365L249 366L248 365z"/>
<path style="fill:#7a858d; stroke:none;" d="M528 365L529 366L528 365M543 365L544 366L543 365z"/>
<path style="fill:#3c4651; stroke:none;" d="M559.333 365.667L559.333 366L559.667 366.333L559.667 365.667L559.333 365.667z"/>
<path style="fill:#3b4551; stroke:none;" d="M592 365L592 368L592.694 367.25L592.694 366.194L592.694 365.75L592 365z"/>
<path style="fill:#7a858d; stroke:none;" d="M608 365L609 366L608 365M623 365L624 366L623 365z"/>
<path style="fill:#6d7780; stroke:none;" d="M226 366L227 367L226 366z"/>
<path style="fill:#a6b1b6; stroke:none;" d="M357 366L358 367L357 366M442 366L443 367L442 366z"/>
<path style="fill:#95a0a6; stroke:none;" d="M569 366L570 367L569 366M582 366L583 367L582 366z"/>
<path style="fill:#a3aeb4; stroke:none;" d="M198 367L199 368L198 367z"/>
<path style="fill:#919ca2; stroke:none;" d="M230 367L231 368L230 367z"/>
<path style="fill:#949fa5; stroke:none;" d="M249 367L250 368L249 367z"/>
<path style="fill:#58626c; stroke:none;" d="M357 367L358 368L357 367M442 367L443 368L442 367M225 368L226 369L225 368z"/>
<path style="fill:#b7c3c7; stroke:none;" d="M197 369L198 370L197 369z"/>
<path style="fill:#b6c2c6; stroke:none;" d="M225 369L226 370L225 369z"/>
<path style="fill:#a4afb5; stroke:none;" d="M229 369L230 370L229 369z"/>
<path style="fill:#a7b3b8; stroke:none;" d="M250 369L251 370L250 369z"/>
<path style="fill:#b0bbc0; stroke:none;" d="M356 369L357 370L356 369M443 369L444 370L443 369z"/>
<path style="fill:#79848c; stroke:none;" d="M570 369L571 370L570 369M581 369L582 370L581 369z"/>
<path style="fill:#67717a; stroke:none;" d="M197 370L198 371L197 370z"/>
<path style="fill:#59646d; stroke:none;" d="M250 370L251 371L250 370z"/>
<path style="fill:#5b666f; stroke:none;" d="M356.333 370.667L356.333 371.333L356.667 371.333L356.667 370.667L356.333 370.667z"/>
<path style="fill:#5a656e; stroke:none;" d="M443.333 370.667L443.333 371.333L443.667 371.333L443.667 370.667L443.333 370.667z"/>
<path style="fill:#758088; stroke:none;" d="M528 370L529 371L528 370z"/>
<path style="fill:#77828a; stroke:none;" d="M543 370L544 371L543 370z"/>
<path style="fill:#d3dfe1; stroke:none;" d="M558.333 370.667L558.333 371L558.667 371.333L558.667 371L558.333 370.667z"/>
<path style="fill:#d2dee1; stroke:none;" d="M593 370L593 373L593.694 372.25L593.694 371.194L593.694 370.75L593 370z"/>
<path style="fill:#7f8a91; stroke:none;" d="M608 370L609 371L608 370z"/>
<path style="fill:#758088; stroke:none;" d="M623 370L624 371L623 370z"/>
<path style="fill:#8c989e; stroke:none;" d="M224 371L225 372L224 371z"/>
<path style="fill:#c1cdd1; stroke:none;" d="M228 371L229 372L228 371z"/>
<path style="fill:#cbd6d9; stroke:none;" d="M543.333 371.667L543.333 372L543.667 372.333L543.667 372L543.333 371.667z"/>
<path style="fill:#b0bbc0; stroke:none;" d="M571 371L572 372L571 371M580 371L581 372L580 371z"/>
<path style="fill:#cad5d9; stroke:none;" d="M608.333 371.667L608.333 372L608.667 372.333L608.667 372L608.333 371.667z"/>
<path style="fill:#bbc7cb; stroke:none;" d="M196 372L197 373L196 372z"/>
<path style="fill:#6b767e; stroke:none;" d="M228 372L229 373L228 372z"/>
<path style="fill:#acb7bc; stroke:none;" d="M251 372L252 373L251 372z"/>
<path style="fill:#758088; stroke:none;" d="M529 372L530 373L529 372z"/>
<path style="fill:#bac5c9; stroke:none;" d="M558 372L558 375L558.694 374.25L558.694 373.194L558.694 372.75L558 372z"/>
<path style="fill:#5e6972; stroke:none;" d="M571 372L572 373L571 372M580 372L581 373L580 372z"/>
<path style="fill:#758088; stroke:none;" d="M622 372L623 373L622 372z"/>
<path style="fill:#636e77; stroke:none;" d="M196.333 373.667L196.333 374L196.667 374.333L196.667 374L196.333 373.667z"/>
<path style="fill:#4e5963; stroke:none;" d="M223 373L224 374L223 373z"/>
<path style="fill:#535d67; stroke:none;" d="M251.333 373.667L251.333 374L251.667 374.333L251.667 374L251.333 373.667M530 373L531 374L530 373z"/>
<path style="fill:#c7d3d6; stroke:none;" d="M544 373L545 374L544 373z"/>
<path style="fill:#acb8bd; stroke:none;" d="M593 373L593 376L593.694 375.25L593.694 374.194L593.694 373.75L593 373z"/>
<path style="fill:#c7d3d6; stroke:none;" d="M607 373L608 374L607 373z"/>
<path style="fill:#525c66; stroke:none;" d="M621 373L622 374L621 373z"/>
<path style="fill:#8f9aa1; stroke:none;" d="M223 374L224 375L223 374z"/>
<path style="fill:#a4afb5; stroke:none;" d="M227 374L228 375L227 374z"/>
<path style="fill:#737e86; stroke:none;" d="M531 374L532 375L531 374z"/>
<path style="fill:#b8c4c8; stroke:none;" d="M545 374L546 375L545 374z"/>
<path style="fill:#95a0a6; stroke:none;" d="M572 374L573 375L572 374M579 374L580 375L579 374z"/>
<path style="fill:#b7c3c7; stroke:none;" d="M606 374L607 375L606 374z"/>
<path style="fill:#737e86; stroke:none;" d="M620 374L621 375L620 374z"/>
<path style="fill:#626d76; stroke:none;" d="M227 375L228 376L227 375z"/>
<path style="fill:#768189; stroke:none;" d="M533 375L534 376L533 375z"/>
<path style="fill:#a6b2b7; stroke:none;" d="M546 375L547 376L546 375z"/>
<path style="fill:#949fa5; stroke:none;" d="M558 375L558 378L558.694 377.25L558.694 376.194L558.694 375.75L558 375z"/>
<path style="fill:#a6b2b7; stroke:none;" d="M605 375L606 376L605 375z"/>
<path style="fill:#758088; stroke:none;" d="M618 375L619 376L618 375z"/>
<path style="fill:#b6c1c5; stroke:none;" d="M381 376L382 377L381 376z"/>
<path style="fill:#f2feff; stroke:none;" d="M382 376L380 378L380.528 379.5L380.917 380.056L381.472 381.056L382.167 382L383.556 384L384.75 386L385.222 387L386.222 389L386.75 390L387.611 392L388.333 393.944L388.556 394.5L389 396L391 396L392 395L391.75 393.5L391.361 391.944L391.139 391L390.861 390L390.611 389L390.306 388L389.667 386L389.333 385L388.583 383L388.111 382L387.583 381L386.361 379.056L385.639 378.056L385.25 377.5L384 376L382 376z"/>
<path style="fill:#616b75; stroke:none;" d="M384 376L385 377L384 376M415 376L416 377L415 376z"/>
<path style="fill:#f2feff; stroke:none;" d="M416 376L414.75 377.5L414.361 378.056L413.083 380L412.056 382L411.639 383L410.806 385L410.389 386L410.028 387L409.389 389L409.139 390L408.667 392L408.444 392.944L408.472 393.944L408.361 394.5L409 396L411 396L411.444 394.5L411.667 393.944L412.389 392L413.25 390L413.778 389L414.778 387L415.25 386L416.444 384L417.833 382L418.528 381.056L419.083 380.056L419.472 379.5L420 378L418 376L416 376z"/>
<path style="fill:#b6c2c6; stroke:none;" d="M418 376L419 377L418 376z"/>
<path style="fill:#b4bfc4; stroke:none;" d="M536 376L537 377L536 376z"/>
<path style="fill:#939ea5; stroke:none;" d="M547 376L548 377L547 376z"/>
<path style="fill:#879299; stroke:none;" d="M593 376L593 379L593.694 378.25L593.694 377.194L593.694 376.75L593 376z"/>
<path style="fill:#929da4; stroke:none;" d="M604 376L605 377L604 376z"/>
<path style="fill:#b4bfc4; stroke:none;" d="M615 376L616 377L615 376z"/>
<path style="fill:#5a656e; stroke:none;" d="M222 377L223 378L222 377z"/>
<path style="fill:#c2ced1; stroke:none;" d="M226 377L227 378L226 377z"/>
<path style="fill:#505b65; stroke:none;" d="M356 377L356 380L356.694 379.25L356.694 378.194L356.694 377.75L356 377z"/>
<path style="fill:#bac5c9; stroke:none;" d="M380 377L381 378L380 377z"/>
<path style="fill:#4d5761; stroke:none;" d="M385 377L386 378L385 377M414 377L415 378L414 377z"/>
<path style="fill:#b9c4c9; stroke:none;" d="M419 377L420 378L419 377z"/>
<path style="fill:#505b65; stroke:none;" d="M443 377L443 380L443.694 379.25L443.694 378.194L443.694 377.75L443 377z"/>
<path style="fill:#4b5560; stroke:none;" d="M537 377L538 378L537 377z"/>
<path style="fill:#7d878f; stroke:none;" d="M548 377L549 378L548 377z"/>
<path style="fill:#79848c; stroke:none;" d="M573 377L574 378L573 377M578 377L579 378L578 377z"/>
<path style="fill:#7d878f; stroke:none;" d="M603 377L604 378L603 377z"/>
<path style="fill:#4b5560; stroke:none;" d="M614 377L615 378L614 377z"/>
<path style="fill:#a5b0b5; stroke:none;" d="M222.333 378.667L222.333 379.333L222.667 379.333L222.667 379L222.333 378.667z"/>
<path style="fill:#6d7881; stroke:none;" d="M226.333 378.667L226.333 379.333L226.667 379.333L226.667 379L226.333 378.667z"/>
<path style="fill:#a3aeb4; stroke:none;" d="M537 378L538 379L537 378z"/>
<path style="fill:#69747d; stroke:none;" d="M549 378L550 379L549 378z"/>
<path style="fill:#6d7881; stroke:none;" d="M558 378L558 381L558.694 380.25L558.694 379.194L558.694 378.75L558 378z"/>
<path style="fill:#68737c; stroke:none;" d="M602 378L603 379L602 378z"/>
<path style="fill:#a4afb5; stroke:none;" d="M614 378L615 379L614 378z"/>
<path style="fill:#bec9cd; stroke:none;" d="M380 379L381 380L380 379z"/>
<path style="fill:#a1acb1; stroke:none;" d="M386 379L387 380L386 379M413 379L414 380L413 379z"/>
<path style="fill:#bdc9cd; stroke:none;" d="M419 379L420 380L419 379z"/>
<path style="fill:#57616b; stroke:none;" d="M550 379L551 380L550 379z"/>
<path style="fill:#b0bbc0; stroke:none;" d="M574 379L575 380L574 379M577 379L578 380L577 379z"/>
<path style="fill:#616b75; stroke:none;" d="M593 379L593 382L593.694 381.25L593.694 380.194L593.694 379.75L593 379z"/>
<path style="fill:#57616b; stroke:none;" d="M601 379L602 380L601 379z"/>
<path style="fill:#39444f; stroke:none;" d="M226.333 380.667L226.333 381L226.667 381.333L226.667 381L226.333 380.667z"/>
<path style="fill:#a1adb2; stroke:none;" d="M356 380L357 381L356 380z"/>
<path style="fill:#4d5761; stroke:none;" d="M387 380L388 381L387 380z"/>
<path style="fill:#4c5661; stroke:none;" d="M412 380L413 381L412 380z"/>
<path style="fill:#a1adb2; stroke:none;" d="M443 380L444 381L443 380z"/>
<path style="fill:#869198; stroke:none;" d="M538 380L539 381L538 380z"/>
<path style="fill:#48525d; stroke:none;" d="M551 380L552 381L551 380z"/>
<path style="fill:#5e6972; stroke:none;" d="M574 380L575 381L574 380M577 380L578 381L577 380z"/>
<path style="fill:#47515c; stroke:none;" d="M600 380L601 381L600 380z"/>
<path style="fill:#879299; stroke:none;" d="M613 380L614 381L613 380z"/>
<path style="fill:#606b74; stroke:none;" d="M196 381L196 384L196.694 383.25L196.694 382.194L196.694 381.75L196 381z"/>
<path style="fill:#535e68; stroke:none;" d="M251 381L251 384L251.694 383.25L251.694 382.194L251.694 381.75L251 381z"/>
<path style="fill:#57616b; stroke:none;" d="M381 381L382 382L381 381M418 381L419 382L418 381z"/>
<path style="fill:#48525d; stroke:none;" d="M558 381L558 384L558.694 383.25L558.694 382.194L558.694 381.75L558 381z"/>
<path style="fill:#d8e4e6; stroke:none;" d="M575.667 381.333L576 381.667L576.333 381.667L576 381.333L575.667 381.333z"/>
<path style="fill:#848f96; stroke:none;" d="M382 382L383 383L382 382z"/>
<path style="fill:#5f6a73; stroke:none;" d="M388 382L389 383L388 382M411 382L412 383L411 382z"/>
<path style="fill:#859097; stroke:none;" d="M417 382L418 383L417 382z"/>
<path style="fill:#68737c; stroke:none;" d="M539 382L540 383L539 382z"/>
<path style="fill:#c7d3d6; stroke:none;" d="M554 382L555 383L554 382z"/>
<path style="fill:#3b4551; stroke:none;" d="M593.333 382.667L593.333 383L593.667 383.333L593.667 383L593.333 382.667z"/>
<path style="fill:#c7d3d6; stroke:none;" d="M597 382L598 383L597 382z"/>
<path style="fill:#69747d; stroke:none;" d="M612 382L613 383L612 382z"/>
<path style="fill:#919da3; stroke:none;" d="M357 383L358 384L357 383z"/>
<path style="fill:#c0ccd0; stroke:none;" d="M383 383L384 384L383 383z"/>
<path style="fill:#c7d3d6; stroke:none;" d="M411 383L412 384L411 383z"/>
<path style="fill:#c1cdd1; stroke:none;" d="M416 383L417 384L416 383z"/>
<path style="fill:#919da3; stroke:none;" d="M442 383L443 384L442 383z"/>
<path style="fill:#c3cfd2; stroke:none;" d="M539 383L540 384L539 383z"/>
<path style="fill:#bac5c9; stroke:none;" d="M555 383L556 384L555 383z"/>
<path style="fill:#b9c4c9; stroke:none;" d="M596 383L597 384L596 383z"/>
<path style="fill:#c3cfd2; stroke:none;" d="M612 383L613 384L612 383z"/>
<path style="fill:#c9d4d8; stroke:none;" d="M196.333 384.667L196.333 385L196.667 385.333L196.667 385L196.333 384.667z"/>
<path style="fill:#bbc6ca; stroke:none;" d="M251.333 384.667L251.333 385L251.667 385.333L251.667 385L251.333 384.667z"/>
<path style="fill:#4e5963; stroke:none;" d="M389 384L390 385L389 384M410 384L411 385L410 384z"/>
<path style="fill:#4b5560; stroke:none;" d="M540 384L541 385L540 384z"/>
<path style="fill:#b8c4c8; stroke:none;" d="M556.667 384.333L557 384.667L557.333 384.667L557.333 384.333L556.667 384.333z"/>
<path style="fill:#97a3a9; stroke:none;" d="M594.667 384.333L595 384.667L595.333 384.667L595 384.333L594.667 384.333z"/>
<path style="fill:#4b5560; stroke:none;" d="M611 384L612 385L611 384z"/>
<path style="fill:#5b666f; stroke:none;" d="M222 385L223 386L222 385z"/>
<path style="fill:#606b74; stroke:none;" d="M225 385L226 386L225 385z"/>
<path style="fill:#7a858d; stroke:none;" d="M358 385L359 386L358 385z"/>
<path style="fill:#929da4; stroke:none;" d="M384 385L385 386L384 385z"/>
<path style="fill:#a6b1b6; stroke:none;" d="M389 385L390 386L389 385M410 385L411 386L410 385z"/>
<path style="fill:#939ea5; stroke:none;" d="M415 385L416 386L415 385z"/>
<path style="fill:#7a858d; stroke:none;" d="M441 385L442 386L441 385z"/>
<path style="fill:#a3aeb4; stroke:none;" d="M540 385L541 386L540 385z"/>
<path style="fill:#a4afb5; stroke:none;" d="M611 385L612 386L611 385z"/>
<path style="fill:#535d67; stroke:none;" d="M197 387L198 388L197 387z"/>
<path style="fill:#9ca7ad; stroke:none;" d="M359 387L360 388L359 387z"/>
<path style="fill:#89949b; stroke:none;" d="M385 387L386 388L385 387z"/>
<path style="fill:#67717a; stroke:none;" d="M390 387L391 388L390 387M409 387L410 388L409 387z"/>
<path style="fill:#89949b; stroke:none;" d="M414 387L415 388L414 387z"/>
<path style="fill:#9ca7ad; stroke:none;" d="M440 387L441 388L440 387z"/>
<path style="fill:#869198; stroke:none;" d="M541 387L542 388L541 387z"/>
<path style="fill:#879299; stroke:none;" d="M610 387L611 388L610 387z"/>
<path style="fill:#8d989f; stroke:none;" d="M197 388L198 389L197 388z"/>
<path style="fill:#818c93; stroke:none;" d="M250 388L251 389L250 388z"/>
<path style="fill:#545f69; stroke:none;" d="M360 388L361 389L360 388z"/>
<path style="fill:#abb6bb; stroke:none;" d="M390 388L391 389L390 388M409 388L410 389L409 388z"/>
<path style="fill:#545f69; stroke:none;" d="M439 388L440 389L439 388z"/>
<path style="fill:#bbc7cb; stroke:none;" d="M250 389L251 390L250 389z"/>
<path style="fill:#9ba6ac; stroke:none;" d="M386 389L387 390L386 389z"/>
<path style="fill:#9ca8ad; stroke:none;" d="M413 389L414 390L413 389z"/>
<path style="fill:#69747d; stroke:none;" d="M542 389L543 390L542 389M609 389L610 390L609 389z"/>
<path style="fill:#bcc8cc; stroke:none;" d="M361 390L362 391L361 390z"/>
<path style="fill:#48535d; stroke:none;" d="M391 390L392 391L391 390z"/>
<path style="fill:#47515c; stroke:none;" d="M408 390L409 391L408 390z"/>
<path style="fill:#bcc8cc; stroke:none;" d="M438 390L439 391L438 390z"/>
<path style="fill:#c3cfd2; stroke:none;" d="M542 390L543 391L542 390M609 390L610 391L609 390z"/>
<path style="fill:#6d7881; stroke:none;" d="M198 391L199 392L198 391z"/>
<path style="fill:#606b74; stroke:none;" d="M249 391L250 392L249 391z"/>
<path style="fill:#9aa5ab; stroke:none;" d="M362 391L363 392L362 391z"/>
<path style="fill:#c2ced1; stroke:none;" d="M387 391L388 392L387 391z"/>
<path style="fill:#79848c; stroke:none;" d="M391 391L392 392L391 391z"/>
<path style="fill:#77828a; stroke:none;" d="M408 391L409 392L408 391z"/>
<path style="fill:#c4cfd3; stroke:none;" d="M412 391L413 392L412 391z"/>
<path style="fill:#9aa5ab; stroke:none;" d="M437 391L438 392L437 391z"/>
<path style="fill:#4b5560; stroke:none;" d="M543 391L544 392L543 391M608 391L609 392L608 391z"/>
<path style="fill:#b6c1c5; stroke:none;" d="M198 392L199 393L198 392z"/>
<path style="fill:#a9b4b9; stroke:none;" d="M249 392L250 393L249 392z"/>
<path style="fill:#8a959c; stroke:none;" d="M363 392L364 393L363 392z"/>
<path style="fill:#747f87; stroke:none;" d="M387 392L388 393L387 392z"/>
<path style="fill:#a8b3b9; stroke:none;" d="M391 392L392 393L391 392M408 392L409 393L408 392z"/>
<path style="fill:#778189; stroke:none;" d="M412 392L413 393L412 392z"/>
<path style="fill:#8a959c; stroke:none;" d="M436 392L437 393L436 392z"/>
<path style="fill:#a4afb5; stroke:none;" d="M543 392L544 393L543 392M608 392L609 393L608 392z"/>
<path style="fill:#7c878e; stroke:none;" d="M364 393L365 394L364 393z"/>
<path style="fill:#7d878f; stroke:none;" d="M435 393L436 394L435 393z"/>
<path style="fill:#778189; stroke:none;" d="M199 394L200 395L199 394z"/>
<path style="fill:#68737c; stroke:none;" d="M248 394L249 395L248 394z"/>
<path style="fill:#7d8890; stroke:none;" d="M365 394L366 395L365 394z"/>
<path style="fill:#b3bec3; stroke:none;" d="M388 394L389 395L388 394z"/>
<path style="fill:#b5c0c5; stroke:none;" d="M411 394L412 395L411 394z"/>
<path style="fill:#7d8890; stroke:none;" d="M434 394L435 395L434 394z"/>
<path style="fill:#879299; stroke:none;" d="M544 394L545 395L544 394M607 394L608 395L607 394z"/>
<path style="fill:#c2ced1; stroke:none;" d="M199 395L200 396L199 395z"/>
<path style="fill:#b4bfc4; stroke:none;" d="M248 395L249 396L248 395z"/>
<path style="fill:#828c94; stroke:none;" d="M366 395L367 396L366 395z"/>
<path style="fill:#707b83; stroke:none;" d="M391 395L392 396L391 395z"/>
<path style="fill:#717c84; stroke:none;" d="M408 395L409 396L408 395z"/>
<path style="fill:#828c94; stroke:none;" d="M433 395L434 396L433 395z"/>
<path style="fill:#8c989e; stroke:none;" d="M367 396L368 397L367 396z"/>
<path style="fill:#8c979d; stroke:none;" d="M432 396L433 397L432 396z"/>
<path style="fill:#69747d; stroke:none;" d="M545 396L546 397L545 396M606 396L607 397L606 396z"/>
<path style="fill:#98a3a9; stroke:none;" d="M200 397L201 398L200 397z"/>
<path style="fill:#8b969d; stroke:none;" d="M247 397L248 398L247 397z"/>
<path style="fill:#95a0a6; stroke:none;" d="M368 397L369 398L368 397M431 397L432 398L431 397z"/>
<path style="fill:#c3cfd2; stroke:none;" d="M545 397L546 398L545 397M606 397L607 398L606 397z"/>
<path style="fill:#9da8ae; stroke:none;" d="M369 398L370 399L369 398M430 398L431 399L430 398z"/>
<path style="fill:#4b5560; stroke:none;" d="M546 398L547 399L546 398M605 398L606 399L605 398z"/>
<path style="fill:#6f7a82; stroke:none;" d="M201 399L202 400L201 399z"/>
<path style="fill:#626c75; stroke:none;" d="M246 399L247 400L246 399z"/>
<path style="fill:#9ba6ac; stroke:none;" d="M370 399L371 400L370 399M429 399L430 400L429 399z"/>
<path style="fill:#a4afb5; stroke:none;" d="M546 399L547 400L546 399M605 399L606 400L605 399z"/>
<path style="fill:#c6d1d5; stroke:none;" d="M201 400L202 401L201 400z"/>
<path style="fill:#b9c4c9; stroke:none;" d="M246 400L247 401L246 400z"/>
<path style="fill:#8d989f; stroke:none;" d="M371 400L372 401L371 400M428 400L429 401L428 400z"/>
<path style="fill:#47515c; stroke:none;" d="M202 401L203 402L202 401z"/>
<path style="fill:#747f87; stroke:none;" d="M372 401L373 402L372 401M427 401L428 402L427 401z"/>
<path style="fill:#879299; stroke:none;" d="M547 401L548 402L547 401M604 401L605 402L604 401z"/>
<path style="fill:#9ea9af; stroke:none;" d="M202 402L203 403L202 402z"/>
<path style="fill:#909ba1; stroke:none;" d="M245 402L246 403L245 402z"/>
<path style="fill:#4a555f; stroke:none;" d="M373 402L374 403L373 402M426 402L427 403L426 402z"/>
<path style="fill:#69747d; stroke:none;" d="M548 403L549 404L548 403M603 403L604 404L603 403z"/>
<path style="fill:#737e86; stroke:none;" d="M203 404L204 405L203 404z"/>
<path style="fill:#67717a; stroke:none;" d="M244 404L245 405L244 404z"/>
<path style="fill:#8c979d; stroke:none;" d="M374 404L375 405L374 404M425 404L426 405L425 404z"/>
<path style="fill:#c3cfd2; stroke:none;" d="M548 404L549 405L548 404M603 404L604 405L603 404z"/>
<path style="fill:#bbc7cb; stroke:none;" d="M244 405L245 406L244 405z"/>
<path style="fill:#4b5560; stroke:none;" d="M549 405L550 406L549 405M602 405L603 406L602 405z"/>
<path style="fill:#48535d; stroke:none;" d="M204 406L205 407L204 406z"/>
<path style="fill:#747f87; stroke:none;" d="M375 406L376 407L375 406M424 406L425 407L424 406z"/>
<path style="fill:#a4afb5; stroke:none;" d="M549 406L550 407L549 406M602 406L603 407L602 406z"/>
<path style="fill:#98a3a9; stroke:none;" d="M204 407L205 408L204 407z"/>
<path style="fill:#8b969d; stroke:none;" d="M243 407L244 408L243 407z"/>
<path style="fill:#dae5e8; stroke:none;" d="M375.333 407.667L375.333 408.333L375.667 408.333L375.667 408L375.333 407.667M424.333 407.667L424.333 408.333L424.667 408.333L424.667 408L424.333 407.667z"/>
<path style="fill:#879299; stroke:none;" d="M550 408L551 409L550 408z"/>
<path style="fill:#869198; stroke:none;" d="M601 408L602 409L601 408z"/>
<path style="fill:#56606a; stroke:none;" d="M205 409L206 410L205 409z"/>
<path style="fill:#49545e; stroke:none;" d="M242 409L243 410L242 409z"/>
<path style="fill:#a3aeb4; stroke:none;" d="M205 410L206 411L205 410z"/>
<path style="fill:#95a0a6; stroke:none;" d="M242 410L243 411L242 410z"/>
<path style="fill:#768189; stroke:none;" d="M551 410L552 411L551 410M600 410L601 411L600 410z"/>
<path style="fill:#667179; stroke:none;" d="M206 411L207 412L206 411z"/>
<path style="fill:#5d6871; stroke:none;" d="M241 411L242 412L241 411z"/>
<path style="fill:#b4bfc4; stroke:none;" d="M376 411L377 412L376 411M423 411L424 412L423 411z"/>
<path style="fill:#78838b; stroke:none;" d="M552 411L553 412L552 411M599 411L600 412L599 411z"/>
<path style="fill:#acb7bc; stroke:none;" d="M205 416L206 417L205 416z"/>
<path style="fill:#1c2633; stroke:none;" d="M194 435L195 436L253 436L254 435L254 432.944L254 431.944L253.889 430L253.667 429L253.278 428L252.667 427L250.972 425L249 423L247 421L245 419.028L244 418.111L242 416.722L241 416.333L240 416.111L238 416L237 416L234 416L221 416L215 416L213 416L212 416L210 416L208 416.111L206 416.722L204 418.111L203 419.028L201 421L199 423L197.028 425L195.333 427L194.722 428L194.333 429L194.111 430L194 431.944L194 432.944L194 435z"/>
<path style="fill:#abb6bb; stroke:none;" d="M242 416L243 417L242 416z"/>
<path style="fill:#a6b1b6; stroke:none;" d="M375 416L376 417L375 416z"/>
<path style="fill:#1c2633; stroke:none;" d="M364 435L365 436L435 436L436 435L436 432.944L436 431.944L435.889 430L435.667 429L435.278 428L434.667 427L432.972 425L431 423L429 421L427 419.028L426 418.111L424 416.722L422 416.111L420 416L418 416L417 416L414 416L406 416L386 416L383 416L381 416L379 416.028L377 416.333L376 416.722L374 418.111L373 419.028L371 421L369 423L367.028 425L365.333 427L364.722 428L364.333 429L364.111 430L364 431.944L364 432.944L364 435z"/>
<path style="fill:#acb7bc; stroke:none;" d="M424 416L425 417L424 416z"/>
<path style="fill:#a5b0b5; stroke:none;" d="M551 416L552 417L551 416z"/>
<path style="fill:#1c2633; stroke:none;" d="M540 435L541 436L572 436L604 436L607 436L611 436L612 435L612 432.944L612 431.944L611.889 430L611.667 429L611.278 428L610.667 427L608.972 425L607 423L605 421L603 419.028L602 418.111L600 416.722L599 416.333L597 416.028L595 416L593 416L590 416L570 416L562 416L559 416L558 416L556 416L554 416.111L552 416.722L550 418.111L549 419.028L547 421L545 423L543.028 425L541.333 427L540.722 428L540.333 429L540.111 430L540 431.944L540 432.944L540 435z"/>
<path style="fill:#acb7bc; stroke:none;" d="M600 416L601 417L600 416z"/>
<path style="fill:#89949b; stroke:none;" d="M204 417L205 418L204 417M243 417L244 418L243 417z"/>
<path style="fill:#808b92; stroke:none;" d="M374 417L375 418L374 417z"/>
<path style="fill:#89949b; stroke:none;" d="M425 417L426 418L425 417z"/>
<path style="fill:#818c93; stroke:none;" d="M550 417L551 418L550 417z"/>
<path style="fill:#89949b; stroke:none;" d="M601 417L602 418L601 417z"/>
<path style="fill:#879299; stroke:none;" d="M203 418L204 419L203 418M244 418L245 419L244 418z"/>
<path style="fill:#808b92; stroke:none;" d="M373 418L374 419L373 418z"/>
<path style="fill:#879299; stroke:none;" d="M426 418L427 419L426 418z"/>
<path style="fill:#818c93; stroke:none;" d="M549 418L550 419L549 418z"/>
<path style="fill:#88939a; stroke:none;" d="M602 418L603 419L602 418z"/>
<path style="fill:#879299; stroke:none;" d="M202 419L203 420L202 419M245 419L246 420L245 419z"/>
<path style="fill:#808b92; stroke:none;" d="M372 419L373 420L372 419z"/>
<path style="fill:#879299; stroke:none;" d="M427 419L428 420L427 419z"/>
<path style="fill:#818c93; stroke:none;" d="M548 419L549 420L548 419z"/>
<path style="fill:#88939a; stroke:none;" d="M603 419L604 420L603 419z"/>
<path style="fill:#879299; stroke:none;" d="M201 420L202 421L201 420M246 420L247 421L246 420z"/>
<path style="fill:#808b92; stroke:none;" d="M371 420L372 421L371 420z"/>
<path style="fill:#879299; stroke:none;" d="M428 420L429 421L428 420z"/>
<path style="fill:#818c93; stroke:none;" d="M547 420L548 421L547 420z"/>
<path style="fill:#88939a; stroke:none;" d="M604 420L605 421L604 420z"/>
<path style="fill:#879299; stroke:none;" d="M200 421L201 422L200 421M247 421L248 422L247 421z"/>
<path style="fill:#808b92; stroke:none;" d="M370 421L371 422L370 421z"/>
<path style="fill:#879299; stroke:none;" d="M429 421L430 422L429 421z"/>
<path style="fill:#818c93; stroke:none;" d="M546 421L547 422L546 421z"/>
<path style="fill:#88939a; stroke:none;" d="M605 421L606 422L605 421z"/>
<path style="fill:#879299; stroke:none;" d="M199 422L200 423L199 422M248 422L249 423L248 422z"/>
<path style="fill:#808b92; stroke:none;" d="M369 422L370 423L369 422z"/>
<path style="fill:#879299; stroke:none;" d="M430 422L431 423L430 422z"/>
<path style="fill:#818c93; stroke:none;" d="M545 422L546 423L545 422z"/>
<path style="fill:#88939a; stroke:none;" d="M606 422L607 423L606 422z"/>
<path style="fill:#879299; stroke:none;" d="M198 423L199 424L198 423M249 423L250 424L249 423z"/>
<path style="fill:#7f8a91; stroke:none;" d="M368 423L369 424L368 423z"/>
<path style="fill:#879299; stroke:none;" d="M431 423L432 424L431 423z"/>
<path style="fill:#818c93; stroke:none;" d="M544 423L545 424L544 423z"/>
<path style="fill:#88939a; stroke:none;" d="M607 423L608 424L607 423z"/>
<path style="fill:#879299; stroke:none;" d="M197 424L198 425L197 424M250 424L251 425L250 424z"/>
<path style="fill:#7f8a91; stroke:none;" d="M367 424L368 425L367 424z"/>
<path style="fill:#879299; stroke:none;" d="M432 424L433 425L432 424z"/>
<path style="fill:#808b92; stroke:none;" d="M543 424L544 425L543 424z"/>
<path style="fill:#88939a; stroke:none;" d="M608 424L609 425L608 424z"/>
<path style="fill:#879299; stroke:none;" d="M196 425L197 426L196 425M251 425L252 426L251 425z"/>
<path style="fill:#7f8a91; stroke:none;" d="M366 425L367 426L366 425z"/>
<path style="fill:#879299; stroke:none;" d="M433 425L434 426L433 425z"/>
<path style="fill:#808b92; stroke:none;" d="M542 425L543 426L542 425z"/>
<path style="fill:#88939a; stroke:none;" d="M609 425L610 426L609 425z"/>
<path style="fill:#879299; stroke:none;" d="M195 426L196 427L195 426M252 426L253 427L252 426z"/>
<path style="fill:#7f8a91; stroke:none;" d="M365 426L366 427L365 426z"/>
<path style="fill:#879299; stroke:none;" d="M434 426L435 427L434 426z"/>
<path style="fill:#808b92; stroke:none;" d="M541 426L542 427L541 426z"/>
<path style="fill:#88939a; stroke:none;" d="M610 426L611 427L610 426z"/>
<path style="fill:#aab5ba; stroke:none;" d="M194 427L195 428L194 427z"/>
<path style="fill:#a9b4b9; stroke:none;" d="M253 427L254 428L253 427z"/>
<path style="fill:#a4afb5; stroke:none;" d="M364 427L365 428L364 427z"/>
<path style="fill:#abb6bb; stroke:none;" d="M435 427L436 428L435 427z"/>
<path style="fill:#a6b1b6; stroke:none;" d="M540 427L541 428L540 427z"/>
<path style="fill:#abb6bb; stroke:none;" d="M611 427L612 428L611 427z"/>
<path style="fill:#b4bfc4; stroke:none;" d="M194 435L195 436L194 435M253 435L254 436L253 435z"/>
<path style="fill:#afbabf; stroke:none;" d="M364 435L365 436L364 435z"/>
<path style="fill:#b2bec2; stroke:none;" d="M435 435L436 436L435 435z"/>
<path style="fill:#afbabf; stroke:none;" d="M540 435L541 436L540 435z"/>
<path style="fill:#b1bcc1; stroke:none;" d="M611 435L612 436L611 435z"/>
</svg>
